<?xml version="1.0" encoding="UTF-8"?>
<svg version="1.1" xmlns="http://www.w3.org/2000/svg" width="306" height="288">
<path d="M0 0 C100.98 0 201.96 0 306 0 C306 95.04 306 190.08 306 288 C205.02 288 104.04 288 0 288 C0 192.96 0 97.92 0 0 Z " fill="#1770C2" transform="translate(0,0)"/>
<path d="M0 0 C100.98 0 201.96 0 306 0 C306 95.04 306 190.08 306 288 C205.02 288 104.04 288 0 288 C0 192.96 0 97.92 0 0 Z M93 19 C91.75863281 19.74636719 91.75863281 19.74636719 90.4921875 20.5078125 C83.5113487 24.82134573 77.24676238 29.69025197 71 35 C70.34 35.53625 69.68 36.0725 69 36.625 C64.47801563 40.33948716 60.70355031 44.47675042 57 49 C55.83791016 50.40572266 55.83791016 50.40572266 54.65234375 51.83984375 C29.99208933 82.34956062 19.49309733 122.13408068 23.57421875 160.96484375 C24.62726639 169.67147033 25.98893349 177.74415795 29 186 C29.42539062 187.2478125 29.85078125 188.495625 30.2890625 189.78125 C33.74349865 199.39710736 38.06690369 208.23267096 43.00537109 217.16894531 C44.40510293 219.74577123 45.70843119 222.36765975 47 225 C47.66 225 48.32 225 49 225 C49.26683594 225.57492188 49.53367187 226.14984375 49.80859375 226.7421875 C63.77838179 253.2160809 94.25138312 271.08216775 121.57373047 280.25585938 C127.60112945 282.10447198 133.76430316 283.1236318 140 284 C141.24523437 284.18304688 142.49046875 284.36609375 143.7734375 284.5546875 C158.59774838 286.34712861 173.49403305 285.29473066 188 282 C189.05058594 281.7834375 190.10117188 281.566875 191.18359375 281.34375 C220.16363463 274.87808351 247.5842863 255.87123283 265 232 C265.70511719 231.06027344 266.41023437 230.12054688 267.13671875 229.15234375 C275.88728759 217.07258817 283.80442496 203.37730527 288 189 C288.23702637 188.20158691 288.47405273 187.40317383 288.71826172 186.58056641 C289.55881807 183.72510974 290.3770011 180.86412786 291.1875 178 C291.58146973 176.62847778 291.58146973 176.62847778 291.98339844 175.22924805 C297.82638187 153.88326379 297.47051279 127.20451608 291 106 C290.76394043 105.20126465 290.52788086 104.4025293 290.28466797 103.57958984 C282.7469766 78.64348772 269.65902329 57.16799636 251 39 C250.32517578 38.2575 250.32517578 38.2575 249.63671875 37.5 C243.87209049 31.32054737 236.96051945 26.71697838 230 22 C229.17628906 21.43023438 228.35257813 20.86046875 227.50390625 20.2734375 C189.05454398 -4.64867946 131.70165421 -5.53634286 93 19 Z " fill="#2B2C31" transform="translate(0,0)"/>
<path d="M0 0 C1.61549492 0.01665459 1.61549492 0.01665459 3.2636261 0.03364563 C5.09518501 0.03421211 5.09518501 0.03421211 6.96374512 0.03479004 C8.94197014 0.07349968 8.94197014 0.07349968 10.9601593 0.11299133 C12.3234935 0.12231848 13.68684447 0.12943506 15.05020142 0.13442993 C18.63617843 0.15350837 22.22114054 0.20261378 25.80671692 0.25794983 C29.46644866 0.30912568 33.12634465 0.33194024 36.78633118 0.35713196 C43.96583001 0.41073398 51.14449301 0.4960542 58.32344055 0.60127258 C55.77376489 8.43467001 55.77376489 8.43467001 53.32344055 10.60127258 C50.61114552 10.89769827 48.32604323 10.98188448 45.63594055 10.85127258 C44.58309875 10.82420227 44.58309875 10.82420227 43.50898743 10.79658508 C41.77988619 10.74953471 40.0514885 10.67779131 38.32344055 10.60127258 C38.79781555 11.34377258 39.27219055 12.08627258 39.76094055 12.85127258 C41.32344055 15.60127258 41.32344055 15.60127258 42.32344055 19.60127258 C47.93344055 19.93127258 53.54344055 20.26127258 59.32344055 20.60127258 C57.67344055 23.90127258 56.02344055 27.20127258 54.32344055 30.60127258 C50.36344055 30.60127258 46.40344055 30.60127258 42.32344055 30.60127258 C41.99344055 32.25127258 41.66344055 33.90127258 41.32344055 35.60127258 C38.8526574 42.28692112 34.0111597 46.66365743 27.7882843 49.93330383 C23.07539766 51.94498848 19.49239093 52.78855339 14.32344055 52.60127258 C19.72964238 59.29076475 25.24285589 65.86945489 30.85932922 72.38227844 C34.82027769 76.98592049 38.67486262 81.66346721 42.4835968 86.39424133 C44.23620729 88.57949816 44.23620729 88.57949816 46.0695343 90.27705383 C47.32344055 91.60127258 47.32344055 91.60127258 47.32344055 93.60127258 C31.69248336 95.27059811 31.69248336 95.27059811 26.5460968 91.64424133 C24.26188754 88.73899939 22.31417519 85.71451999 20.32344055 82.60127258 C18.35553267 80.1400268 16.27980714 77.77926628 14.19844055 75.41377258 C13.17271339 74.22321647 12.1479448 73.0318337 11.1242218 71.83955383 C8.88870541 69.25078543 6.6421355 66.67205681 4.38594055 64.10127258 C3.5970343 63.18281555 3.5970343 63.18281555 2.79219055 62.24580383 C1.36010717 60.59161461 1.36010717 60.59161461 -0.20780945 59.17549133 C-2.55620906 56.85970838 -3.62699919 55.05938728 -3.98124695 51.78486633 C-3.98826381 49.03776669 -3.89576505 46.33890692 -3.67655945 43.60127258 C-2.55378601 43.57549133 -1.43101257 43.54971008 -0.2742157 43.52314758 C12.67010977 43.18876666 12.67010977 43.18876666 23.92500305 37.28096008 C25.76242093 35.24972771 25.76242093 35.24972771 27.32344055 30.60127258 C16.10344055 30.60127258 4.88344055 30.60127258 -6.67655945 30.60127258 C-5.30636881 23.75031938 -5.30636881 23.75031938 -2.67655945 20.60127258 C0.3261261 20.03364563 0.3261261 20.03364563 3.9601593 20.11299133 C5.25888977 20.12910461 6.55762024 20.1452179 7.89570618 20.16181946 C9.26746754 20.2035965 10.63921233 20.24592124 12.01094055 20.28877258 C13.39436437 20.31385513 14.77783133 20.33666841 16.16133118 20.35713196 C19.54978819 20.41616431 22.9360744 20.49847176 26.32344055 20.60127258 C23.81567811 15.87075409 21.77682205 14.32238655 16.91767883 12.36494446 C12.40255023 11.03581569 7.94171187 10.92293366 3.26094055 10.85127258 C1.81944641 10.80679993 1.81944641 10.80679993 0.34883118 10.76142883 C-1.99304576 10.69152206 -4.33397359 10.63844123 -6.67655945 10.60127258 C-6.00065337 5.86993005 -5.14293671 1.15532903 0 0 Z " fill="#F4FBFC" transform="translate(123.67655944824219,102.39872741699219)"/>
<path d="M0 0 C0.78375 0.495 1.5675 0.99 2.375 1.5 C2.70833333 3.5 3.04166667 5.5 3.375 7.5 C5.83755685 8.95291273 5.83755685 8.95291273 8.375 9.5 C8.43107422 10.38751953 8.43107422 10.38751953 8.48828125 11.29296875 C9.00866568 17.91636792 9.00866568 17.91636792 12.375 23.5 C14.68877861 24.54444866 17.02136634 25.54876238 19.375 26.5 C19.37886719 28.07587891 19.37886719 28.07587891 19.3828125 29.68359375 C19.54961162 37.59571478 19.75081194 43.41271993 25.09765625 49.703125 C26.375 51.5 26.375 51.5 26.375 55.5 C7.895 55.5 -10.585 55.5 -29.625 55.5 C-28.52596043 48.90576258 -28.52596043 48.90576258 -26.09765625 45.71875 C-23.0897259 41.1706469 -22.98106661 37.34031632 -23.0625 32 C-23.1437511 24.2123946 -21.99245604 18.55171081 -16.9140625 12.44140625 C-13.22231673 9.38228358 -10.59730161 7.7425513 -5.625 7.5 C-5.686875 6.55125 -5.74875 5.6025 -5.8125 4.625 C-5.7196875 3.078125 -5.7196875 3.078125 -5.625 1.5 C-2.625 -0.5 -2.625 -0.5 0 0 Z " fill="#F7FBFD" transform="translate(226.625,50.5)"/>
<path d="M0 0 C1.03656738 -0.01393799 2.07313477 -0.02787598 3.14111328 -0.04223633 C13.07690339 0.01829982 22.33225479 1.85210078 31.125 6.5625 C32.13046875 7.09230469 33.1359375 7.62210937 34.171875 8.16796875 C34.89890625 8.56628906 35.6259375 8.96460937 36.375 9.375 C35.715 11.685 35.055 13.995 34.375 16.375 C28.97854024 15.89531469 24.44376457 14.40836115 19.4140625 12.41015625 C3.36034283 6.94198695 -13.06951358 8.0450618 -28.625 14.375 C-29.69234375 14.7978125 -30.7596875 15.220625 -31.859375 15.65625 C-40.21625659 19.3800418 -46.27946871 24.94435726 -52.625 31.375 C-53.53572266 32.28765625 -53.53572266 32.28765625 -54.46484375 33.21875 C-66.37124288 46.10418991 -71.4008371 63.21060662 -71.15307617 80.45898438 C-70.69444705 91.04576453 -67.52721531 100.51162206 -63.375 110.2109375 C-62.26747227 113.40661647 -62.33391555 116.02752879 -62.625 119.375 C-65.1 119.87 -65.1 119.87 -67.625 120.375 C-76.31988984 107.29703044 -80.21125976 94.26619199 -80.0625 78.5 C-80.05420166 77.35885742 -80.04590332 76.21771484 -80.03735352 75.04199219 C-79.65334321 55.87154167 -71.80689015 40.04164392 -59.625 25.375 C-58.83222656 24.41013672 -58.83222656 24.41013672 -58.0234375 23.42578125 C-43.01737592 6.91911351 -21.62721854 0.18668914 0 0 Z " fill="#EBF7FB" transform="translate(159.625,64.625)"/>
<path d="M0 0 C4.38359669 12.52206703 3.70314055 29.69178112 -1 42 C-1.23106445 42.61391602 -1.46212891 43.22783203 -1.70019531 43.86035156 C-5.28711575 53.2043921 -9.63402726 61.20332411 -16 69 C-16.49113281 69.64195312 -16.98226562 70.28390625 -17.48828125 70.9453125 C-27.92804798 84.06118845 -45.47508829 94.22666755 -61.9375 96.6875 C-62.76725342 96.8119751 -63.59700684 96.9364502 -64.4519043 97.06469727 C-87.18662476 100.24178161 -106.63888418 94.62276335 -125 81 C-124.125 76.125 -124.125 76.125 -123 75 C-121.00041636 74.95919217 -118.99954746 74.95745644 -117 75 C-117 75.66 -117 76.32 -117 77 C-116.278125 77.268125 -115.55625 77.53625 -114.8125 77.8125 C-112 79 -112 79 -109.81640625 80.375 C-95.3292229 88.73376321 -77.64469563 90.78767892 -61.40234375 87.07421875 C-57.4634315 86.00180628 -53.76125859 84.58566964 -50 83 C-48.91332031 82.54238281 -47.82664062 82.08476562 -46.70703125 81.61328125 C-28.66979842 73.26906074 -17.60832829 59.21384023 -10.76171875 40.8984375 C-10 39 -10 39 -9 38 C-7.67900108 30.53589424 -7.88757443 23.05796305 -7.9375 15.5 C-7.94201172 14.200625 -7.94652344 12.90125 -7.95117188 11.5625 C-7.9628908 8.37495175 -7.97929781 5.18750045 -8 2 C-4.91190305 0.23537317 -3.76687864 0 0 0 Z " fill="#EBF6FB" transform="translate(235,125)"/>
<path d="M0 0 C1.32 0 2.64 0 4 0 C5.85728053 23.6139953 -2.36996267 45.98812108 -17.5625 64 C-19.34845761 66.02652138 -21.16953405 68.01287255 -23 70 C-23.94746094 71.10408203 -23.94746094 71.10408203 -24.9140625 72.23046875 C-39.00055181 87.775251 -63.17193761 97.69580772 -83.83007812 99.20703125 C-95.12324726 99.72745379 -106.18687142 99.62385931 -117 96 C-118.03640625 95.6596875 -119.0728125 95.319375 -120.140625 94.96875 C-126.33971729 92.75264937 -132.18646978 90.00373495 -138 86.9375 C-138.62310059 86.60919189 -139.24620117 86.28088379 -139.88818359 85.94262695 C-143.56340649 83.94544002 -146.99204218 81.92250447 -150 79 C-150 77.68 -150 76.36 -150 75 C-145.58965908 74.59265057 -143.65809775 75.58117201 -140.1875 78.25 C-121.81530863 92.27640385 -98.30018578 94.02277517 -76 92 C-70.26924989 91.15253974 -65.29442586 89.37415622 -60 87 C-58.54049704 86.38900643 -57.08085495 85.77834509 -55.62109375 85.16796875 C-47.85620569 81.80727277 -41.15327399 78.1487178 -34.78515625 72.46875 C-33 71 -33 71 -31 71 C-31 70.34 -31 69.68 -31 69 C-29.86241031 67.82793789 -28.71816303 66.66182418 -27.546875 65.5234375 C-10.19452037 48.43399733 -4.03440023 27.26868246 -1.39453125 3.78125 C-1 1 -1 1 0 0 Z " fill="#6BA7E0" transform="translate(250,141)"/>
<path d="M0 0 C-0.33 1.32 -0.66 2.64 -1 4 C-5.66395775 3.36139655 -9.94959026 2.11774133 -14.375 0.5625 C-23.84801367 -2.72265485 -31.93689068 -4.36515048 -42 -4.3125 C-43.65950684 -4.30512817 -43.65950684 -4.30512817 -45.35253906 -4.29760742 C-71.1280308 -3.93137157 -92.11782229 5.70074526 -110 24 C-126.4369946 41.8115168 -133.03330137 63.19921301 -134 87 C-135.9375 87.5625 -135.9375 87.5625 -138 88 C-139.92897942 86.07102058 -139.28801094 82.61849304 -139.3125 80 C-139.3125 58.60920303 -130.76576557 39.07877349 -117 23 C-116.13886948 21.94959032 -115.27819374 20.89880764 -114.41796875 19.84765625 C-88.32477708 -10.88245155 -34.67956846 -23.11971231 0 0 Z " fill="#6AA6E0" transform="translate(202,58)"/>
<path d="M0 0 C-0.61458229 8.0704358 -1.69225335 16.01385781 -3 24 C-6 24 -6 24 -8.1875 22 C-8.785625 21.34 -9.38375 20.68 -10 20 C-17.99466845 23.34489576 -23.88286711 31.78400471 -29.39453125 38.23828125 C-31.72256174 40.79288405 -34.27822319 42.87568639 -37 45 C-39.64 42.03 -42.28 39.06 -45 36 C-48.45281166 37.15093722 -49.38082163 38.3205993 -51.6875 41.0625 C-52.31011719 41.79597656 -52.93273437 42.52945313 -53.57421875 43.28515625 C-54.04472656 43.85105469 -54.51523438 44.41695312 -55 45 C-56.875 44.3125 -56.875 44.3125 -59 43 C-59.66 41.35 -60.32 39.7 -61 38 C-56.38 33.05 -51.76 28.1 -47 23 C-42.46213776 25.26893112 -41.05321843 27.09866534 -38 31 C-34.3491207 30.43263362 -32.79257218 29.10048851 -30.328125 26.40234375 C-29.66425781 25.68369141 -29.00039062 24.96503906 -28.31640625 24.22460938 C-27.63449219 23.46986328 -26.95257813 22.71511719 -26.25 21.9375 C-25.55261719 21.17888672 -24.85523438 20.42027344 -24.13671875 19.63867188 C-22.41694923 17.76577219 -20.70518911 15.88616736 -19 14 C-20.37154504 11.04590299 -21.98863724 8.55991624 -24 6 C-20.75274421 4.99093539 -17.50178926 3.99434878 -14.25 3 C-13.32960937 2.71382813 -12.40921875 2.42765625 -11.4609375 2.1328125 C-10.57148438 1.86210938 -9.68203125 1.59140625 -8.765625 1.3125 C-7.94868164 1.06113281 -7.13173828 0.80976562 -6.29003906 0.55078125 C-4 0 -4 0 0 0 Z " fill="#BCD9F4" transform="translate(215,124)"/>
<path d="M0 0 C1.98 1.65 3.96 3.3 6 5 C4.5158627 8.48654476 2.53785948 10.64191072 -0.1875 13.25 C-3.0442302 16.03860468 -5.78998433 18.83306873 -8.375 21.875 C-11.70178917 25.75883294 -15.30436263 29.33410877 -18.94165039 32.92211914 C-21.67592662 35.6337317 -24.29786738 38.39641827 -26.8125 41.3125 C-35.02921392 50.82349344 -35.02921392 50.82349344 -38.75 51.5 C-41 51 -41 51 -43 49 C-42.71400531 44.99114341 -41.46998117 42.95542591 -38.71875 40.109375 C-38.04577881 39.40417725 -37.37280762 38.69897949 -36.67944336 37.97241211 C-35.96022705 37.23901611 -35.24101074 36.50562012 -34.5 35.75 C-33.77111572 34.99146729 -33.04223145 34.23293457 -32.29125977 33.45141602 C-27.87750478 28.87260575 -23.39827946 24.36113562 -18.8671875 19.8984375 C-16.4212667 17.41158079 -14.17448967 14.77696907 -11.90625 12.12890625 C-8.12526991 7.90629529 -4.04300347 3.96979013 0 0 Z " fill="#B6D6F3" transform="translate(120,169)"/>
<path d="M0 0 C0.66 0 1.32 0 2 0 C2.49467067 13.77749425 1.60381903 27.20589263 -4 40 C-4.31324219 40.85078125 -4.62648438 41.7015625 -4.94921875 42.578125 C-10.6760379 57.60851351 -19.73566853 69.70380338 -31 81 C-31.90105469 81.94488281 -32.80210937 82.88976562 -33.73046875 83.86328125 C-36 86 -36 86 -38 86 C-38 86.66 -38 87.32 -38 88 C-40.23861427 89.67971597 -42.46883709 91.22910341 -44.8125 92.75 C-45.49739502 93.19811035 -46.18229004 93.6462207 -46.88793945 94.10791016 C-66.01621533 106.49936602 -86.1699476 112.43717122 -109 112 C-109 111.01 -109 110.02 -109 109 C-108.16359985 108.94054199 -108.16359985 108.94054199 -107.31030273 108.87988281 C-80.92889833 106.91787595 -54.31530373 99.81775674 -35.25 80.19921875 C-34 79 -34 79 -32 79 C-31.73316406 78.40960938 -31.46632813 77.81921875 -31.19140625 77.2109375 C-29.97920482 74.9614096 -28.69825169 73.46483983 -26.9375 71.625 C-9.11901135 51.65344397 -1.30618438 26.3038509 0 0 Z " fill="#549CDF" transform="translate(266,142)"/>
<path d="M0 0 C0 0.66 0 1.32 0 2 C-0.75506836 2.10022461 -1.51013672 2.20044922 -2.28808594 2.30371094 C-5.77712396 2.77381964 -9.26344781 3.26180983 -12.75 3.75 C-14.53083984 3.98589844 -14.53083984 3.98589844 -16.34765625 4.2265625 C-27.19767674 5.76809547 -37.17576728 8.68649122 -46.9375 13.6875 C-47.61079346 14.03071289 -48.28408691 14.37392578 -48.9777832 14.72753906 C-63.47086366 22.29985296 -78.09272172 33.04944585 -87 47 C-87.63292969 47.96421875 -88.26585938 48.9284375 -88.91796875 49.921875 C-96.84506532 62.35536981 -102.90262908 75.20642681 -105.5703125 89.73828125 C-106 92 -106 92 -106.50708008 93.89819336 C-107.30491943 97.30017403 -107.3750474 100.77137135 -107.5625 104.25 C-107.60568359 104.99507813 -107.64886719 105.74015625 -107.69335938 106.5078125 C-107.79896725 108.338349 -107.89994201 110.16915176 -108 112 C-108.99 111.67 -109.98 111.34 -111 111 C-112.9898802 84.30244062 -101.63077243 59.18932198 -85 39 C-84.43023437 38.28328125 -83.86046875 37.5665625 -83.2734375 36.828125 C-66.77792134 17.0335056 -40.16389398 2.71228889 -14.51953125 0.15234375 C-9.68264392 -0.1401192 -4.84315377 -0.07375361 0 0 Z " fill="#559DDF" transform="translate(159,33)"/>
<path d="M0 0 C4.91511194 1.34048507 4.91511194 1.34048507 6.4375 3.9375 C6.97270313 7.53100675 6.88564771 9.25631548 4.875 12.3125 C1.5380787 14.5371142 -0.63155293 14.43780235 -4.5625 13.9375 C-6.5 12.875 -6.5 12.875 -7.5625 10.9375 C-8.06141602 7.01744554 -8.11503414 4.82155462 -6 1.4375 C-3.5625 -0.0625 -3.5625 -0.0625 0 0 Z " fill="#E9F7FB" transform="translate(246.5625,58.0625)"/>
<path d="M0 0 C0.33 0 0.66 0 1 0 C1.02505615 1.0194873 1.0501123 2.03897461 1.07592773 3.08935547 C1.16997004 6.86520354 1.27019837 10.64086627 1.37231445 14.41650391 C1.41567538 16.05187653 1.45734961 17.68729477 1.49731445 19.32275391 C1.55498912 21.67103841 1.61869129 24.01909304 1.68359375 26.3671875 C1.70866249 27.46726639 1.70866249 27.46726639 1.73423767 28.58956909 C1.78637962 32.42202308 1.78637962 32.42202308 3 36 C3.07065617 38.04055005 3.08421976 40.08334257 3.0625 42.125 C3.05347656 43.22070312 3.04445313 44.31640625 3.03515625 45.4453125 C3.02355469 46.28835937 3.01195312 47.13140625 3 48 C3.66 48 4.32 48 5 48 C5 50.31 5 52.62 5 55 C5.66 55 6.32 55 7 55 C7 57.97 7 60.94 7 64 C2.58110019 57.37165029 1.34353933 49.59331602 0.3125 41.8125 C0.18584961 40.87067871 0.05919922 39.92885742 -0.07128906 38.95849609 C-1.65913329 26.04388701 -1.85454133 12.89205342 0 0 Z " fill="#2364A1" transform="translate(24,125)"/>
<path d="M0 0 C0 0.33 0 0.66 0 1 C-12.26698623 1.34609052 -12.26698623 1.34609052 -17.8125 0 C-28.8736638 -2.48786694 -39.59193861 -1.13267471 -50.4921875 1.33203125 C-55.36502331 2.25993206 -60.06260983 2.2771508 -65 2 C-48.96092065 -8.69271957 -17.62599556 -4.73029913 0 0 Z " fill="#2367A6" transform="translate(190,5)"/>
<path d="M0 0 C1.95824931 -0.02762421 3.91661983 -0.04667014 5.875 -0.0625 C6.96554688 -0.07410156 8.05609375 -0.08570313 9.1796875 -0.09765625 C12.09302915 -0.02318433 14.85511043 0.17530741 17.7421875 0.49609375 C23.25375388 1.08359727 28.71136815 1.14782403 34.25 1.125 C35.20390625 1.12886719 36.1578125 1.13273437 37.140625 1.13671875 C41.89258276 1.13011881 46.31711928 0.88238257 51 0 C52.62394748 -0.0620775 54.25005297 -0.08712041 55.875 -0.0625 C57.04675781 -0.04896484 57.04675781 -0.04896484 58.2421875 -0.03515625 C58.82226562 -0.02355469 59.40234375 -0.01195312 60 0 C45.15363555 9.8975763 16.39068372 4.01602942 0 1 C0 0.67 0 0.34 0 0 Z " fill="#2567A5" transform="translate(128,281)"/>
<path d="M0 0 C2.13770308 6.1065064 2.34603454 11.74834396 2.3125 18.1875 C2.31121094 19.20529541 2.30992187 20.22309082 2.30859375 21.27172852 C2.21526186 28.5743656 1.49766606 35.08681716 -1 42 C-1.33 42 -1.66 42 -2 42 C-2.09765625 35.84765625 -2.09765625 35.84765625 -2 34 C-1.505 33.505 -1.505 33.505 -1 33 C-0.9116033 30.6243148 -0.88469695 28.27791326 -0.90234375 25.90234375 C-0.9037587 25.19348526 -0.90517365 24.48462677 -0.90663147 23.75428772 C-0.91224557 21.48198288 -0.92480037 19.20977525 -0.9375 16.9375 C-0.94251319 15.40039204 -0.94707641 13.86328255 -0.95117188 12.32617188 C-0.96221958 8.55074358 -0.97949359 4.77538829 -1 1 C-2.65 1.33 -4.3 1.66 -6 2 C-6 9.59 -6 17.18 -6 25 C-6.33 25 -6.66 25 -7 25 C-7.33 17.41 -7.66 9.82 -8 2 C-4 0 -4 0 0 0 Z " fill="#B9DCF1" transform="translate(235,125)"/>
<path d="M0 0 C0.33 0.66 0.66 1.32 1 2 C1.66 2.33 2.32 2.66 3 3 C2.52129086 5.08343851 2.04201531 7.16674689 1.5625 9.25 C1.29566406 10.41015625 1.02882813 11.5703125 0.75390625 12.765625 C0.3491481 14.50210038 -0.06386627 16.23725137 -0.52734375 17.95898438 C-1.31027564 21.33982663 -1.37630649 24.79473683 -1.5625 28.25 C-1.60568359 28.99507812 -1.64886719 29.74015625 -1.69335938 30.5078125 C-1.79896725 32.338349 -1.89994201 34.16915176 -2 36 C-2.99 35.67 -3.98 35.34 -5 35 C-5.80138091 24.24813949 -4.87860733 9.75721467 0 0 Z " fill="#4D96DB" transform="translate(53,109)"/>
<path d="M0 0 C5.28 0 10.56 0 16 0 C14.68269231 5.26923077 14.68269231 5.26923077 12 7 C5.06312292 7.77076412 5.06312292 7.77076412 1.5 5.1875 C0 3 0 3 0 0 Z " fill="#EEFAFC" transform="translate(217,110)"/>
<path d="M0 0 C18.48 0 36.96 0 56 0 C56 0.33 56 0.66 56 1 C49.07 1 42.14 1 35 1 C35 1.66 35 2.32 35 3 C32.35409986 3.02684679 29.70846904 3.04676357 27.0625 3.0625 C25.93038086 3.07506836 25.93038086 3.07506836 24.77539062 3.08789062 C22.85005687 3.09652441 20.92464419 3.05224333 19 3 C18.67 2.67 18.34 2.34 18 2 C16.65984779 1.84417697 15.31241097 1.74955858 13.96484375 1.68359375 C13.15595703 1.64169922 12.34707031 1.59980469 11.51367188 1.55664062 C10.66353516 1.51732422 9.81339844 1.47800781 8.9375 1.4375 C8.08349609 1.39431641 7.22949219 1.35113281 6.34960938 1.30664062 C4.23327963 1.20023298 2.11666187 1.09958269 0 1 C0 0.67 0 0.34 0 0 Z " fill="#216AA7" transform="translate(197,107)"/>
<path d="M0 0 C4.34161825 -0.04952706 8.68308575 -0.08577954 13.02490234 -0.10986328 C14.50116847 -0.11990591 15.97741479 -0.13354265 17.45361328 -0.15087891 C19.57850034 -0.17520421 21.70312385 -0.1865004 23.828125 -0.1953125 C25.1059082 -0.20578613 26.38369141 -0.21625977 27.70019531 -0.22705078 C30.77469299 -0.01550278 32.43738352 0.36873092 35 2 C35 2.66 35 3.32 35 4 C35.99 4.33 36.98 4.66 38 5 C36.4372038 4.85737588 34.87477304 4.71074489 33.3125 4.5625 C32.44238281 4.48128906 31.57226562 4.40007813 30.67578125 4.31640625 C28 4 28 4 25.67773438 3.5 C22.9143914 2.98401473 20.28822945 2.79339445 17.48046875 2.68359375 C16.45888672 2.64169922 15.43730469 2.59980469 14.38476562 2.55664062 C13.32966797 2.51732422 12.27457031 2.47800781 11.1875 2.4375 C9.57584961 2.37272461 9.57584961 2.37272461 7.93164062 2.30664062 C5.28787918 2.20089017 2.6440289 2.09879767 0 2 C0 1.34 0 0.68 0 0 Z " fill="#1D3247" transform="translate(151,0)"/>
<path d="M0 0 C0.66 0 1.32 0 2 0 C1.58771609 1.29307226 1.16979706 2.58434733 0.75 3.875 C0.40195312 4.95394531 0.40195312 4.95394531 0.046875 6.0546875 C-0.56300863 7.77055413 -1.20108699 9.47780477 -1.9074707 11.15625 C-4.54055959 17.42343677 -6.26910076 23.60951994 -7.6875 30.25 C-7.89955078 31.20390625 -8.11160156 32.1578125 -8.33007812 33.140625 C-9.34348855 37.74412976 -10.28823702 42.33834358 -11 47 C-11.33 47 -11.66 47 -12 47 C-12 42.05 -12 37.1 -12 32 C-11.34 32 -10.68 32 -10 32 C-10.061875 30.989375 -10.12375 29.97875 -10.1875 28.9375 C-9.98097719 24.60052102 -8.78298142 21.92255912 -7 18 C-6.60235737 16.01178687 -6.24544834 14.01267638 -6 12 C-5.34 12 -4.68 12 -4 12 C-3.79503906 11.38511719 -3.59007812 10.77023438 -3.37890625 10.13671875 C-2.25260417 6.7578125 -1.12630208 3.37890625 0 0 Z " fill="#1A3551" transform="translate(36,78)"/>
<path d="M0 0 C0.33 0.66 0.66 1.32 1 2 C1.589021 1.97905273 2.17804199 1.95810547 2.78491211 1.93652344 C5.50226161 1.8524131 8.21933609 1.80104533 10.9375 1.75 C11.86369141 1.71648437 12.78988281 1.68296875 13.74414062 1.6484375 C20.28514469 1.55663393 25.35257037 2.59575171 31 6 C34 9.09090909 34 9.09090909 34 12 C25.09 12 16.18 12 7 12 C7 11.67 7 11.34 7 11 C14.92 11 22.84 11 31 11 C30.67 9.68 30.34 8.36 30 7 C29.01 7 28.02 7 27 7 C27 6.34 27 5.68 27 5 C26.05125 5.020625 25.1025 5.04125 24.125 5.0625 C21 5 21 5 19 4 C17.5534758 3.84932786 16.1012066 3.75138964 14.6484375 3.68359375 C13.37226563 3.62075195 13.37226563 3.62075195 12.0703125 3.55664062 C11.18085937 3.51732422 10.29140625 3.47800781 9.375 3.4375 C8.4778125 3.39431641 7.580625 3.35113281 6.65625 3.30664062 C4.43765717 3.20043139 2.2189512 3.09838806 0 3 C0 2.01 0 1.02 0 0 Z " fill="#4986B6" transform="translate(116,111)"/>
<path d="M0 0 C4.875 0.875 4.875 0.875 6 2 C6.16796875 3.92578125 6.16796875 3.92578125 6.1875 6.3125 C6.20167969 7.09238281 6.21585938 7.87226562 6.23046875 8.67578125 C5.97070131 11.29546985 5.5285538 12.85137249 4 15 C2.08984375 15.5390625 2.08984375 15.5390625 -0.0625 15.625 C-2.0115625 15.810625 -2.0115625 15.810625 -4 16 C-4.33 16.66 -4.66 17.32 -5 18 C-7.4375 17.3125 -7.4375 17.3125 -10 16 C-11.86359418 11.6072423 -10.65149541 6.60055987 -10 2 C-9.34 2 -8.68 2 -8 2 C-8.02320313 2.62648437 -8.04640625 3.25296875 -8.0703125 3.8984375 C-8.08835938 4.71570312 -8.10640625 5.53296875 -8.125 6.375 C-8.15980469 7.59316406 -8.15980469 7.59316406 -8.1953125 8.8359375 C-8.21370051 11.21342243 -8.21370051 11.21342243 -6 13 C-1.33771115 13.4640446 -1.33771115 13.4640446 2.9375 11.875 C4.52990283 9.06487736 4.45319325 7.17235276 4 4 C2.12498069 1.62280307 2.12498069 1.62280307 0 0 Z " fill="#3A7DB6" transform="translate(248,58)"/>
<path d="M0 0 C3.88910134 3.88910134 4.11008652 9.66745554 4.22705078 14.94726562 C4.22673852 16.76695781 4.21570288 18.58667203 4.1953125 20.40625 C4.19106766 21.85420959 4.19106766 21.85420959 4.18673706 23.3314209 C4.17562124 26.38774478 4.15053285 29.44376601 4.125 32.5 C4.11495908 34.58332907 4.10583518 36.66666278 4.09765625 38.75 C4.07571011 43.83344837 4.04124017 48.91667303 4 54 C3.01 54.495 3.01 54.495 2 55 C2.01047363 53.83017578 2.02094727 52.66035156 2.03173828 51.45507812 C2.06812507 47.08662006 2.0909681 42.71817522 2.10986328 38.34960938 C2.11987847 36.46416974 2.13349452 34.57874547 2.15087891 32.69335938 C2.17532532 29.97261751 2.18652816 27.25208223 2.1953125 24.53125 C2.20563507 23.69758911 2.21595764 22.86392822 2.22659302 22.00500488 C2.22760371 16.65105097 1.40639032 12.16205254 0 7 C-0.15362303 4.63442467 -0.09888829 2.37331907 0 0 Z " fill="#1B3752" transform="translate(292,110)"/>
<path d="M0 0 C0.66 0.33 1.32 0.66 2 1 C-0.10766425 6.33115074 -2.95096351 9.40663126 -8 12 C-8.99 12 -9.98 12 -11 12 C-11.33 10.68 -11.66 9.36 -12 8 C-10.75312408 7.03760548 -9.50235031 6.08025991 -8.25 5.125 C-7.55390625 4.59132812 -6.8578125 4.05765625 -6.140625 3.5078125 C-4.13054265 2.09195158 -2.28373314 0.91157415 0 0 Z " fill="#78AFE2" transform="translate(218,213)"/>
<path d="M0 0 C0.85529297 -0.00773437 1.71058594 -0.01546875 2.59179688 -0.0234375 C8.07753981 -0.00669992 12.79556267 0.71202989 18.0625 2.25 C18.0625 2.58 18.0625 2.91 18.0625 3.25 C16.96748169 3.24214478 16.96748169 3.24214478 15.8503418 3.23413086 C12.48357026 3.21310683 9.11681261 3.20025998 5.75 3.1875 C4.60208984 3.17912109 3.45417969 3.17074219 2.27148438 3.16210938 C-4.85881349 3.14191023 -11.85094572 3.45281881 -18.9375 4.25 C-14.02683798 -0.66066202 -6.49445608 -0.05846472 0 0 Z " fill="#2E74B0" transform="translate(156.9375,72.75)"/>
<path d="M0 0 C0.33 0.66 0.66 1.32 1 2 C-1 5 -3 8 -5 11 C-5 12.32 -5 13.64 -5 15 C-6.53125 16.703125 -6.53125 16.703125 -8.5 18.25 C-9.1496875 18.77078125 -9.799375 19.2915625 -10.46875 19.828125 C-10.9740625 20.21484375 -11.479375 20.6015625 -12 21 C-11.67 19.35 -11.34 17.7 -11 16 C-12.32 16.33 -13.64 16.66 -15 17 C-14.01 15.515 -14.01 15.515 -13 14 C-12.34 14 -11.68 14 -11 14 C-11 13.34 -11 12.68 -11 12 C-9.85356979 10.81985125 -8.70039453 9.64539906 -7.51171875 8.5078125 C-4.82896747 5.83199339 -2.4332419 2.90149463 0 0 Z " fill="#69A8E1" transform="translate(230,198)"/>
<path d="M0 0 C0.33 0 0.66 0 1 0 C1.25 6.625 1.25 6.625 -1 10 C-1.52027291 11.38103856 -1.99631586 12.77920034 -2.4375 14.1875 C-6.77577505 27.54938717 -6.77577505 27.54938717 -11 33 C-11.66 33 -12.32 33 -13 33 C-11.63376393 28.51576972 -9.82028925 24.57403847 -7.625 20.4375 C-4.19551896 13.82139624 -1.92877115 7.21192693 0 0 Z " fill="#1C334A" transform="translate(289,183)"/>
<path d="M0 0 C1.32 0 2.64 0 4 0 C4.09688221 5.44693314 4.12862175 10.63904667 3 16 C1.66666667 16 0.33333333 16 -1 16 C-1.02685095 13.52076199 -1.04676547 11.0418116 -1.0625 8.5625 C-1.07506836 7.50192383 -1.07506836 7.50192383 -1.08789062 6.41992188 C-1.09653588 4.61306441 -1.05220011 2.80612397 -1 1 C-0.67 0.67 -0.34 0.34 0 0 Z " fill="#69A8E3" transform="translate(250,141)"/>
<path d="M0 0 C1.83350768 0.14362477 3.66679783 0.29002705 5.5 0.4375 C7.03140625 0.55931641 7.03140625 0.55931641 8.59375 0.68359375 C10.88257822 0.89620279 13.16578741 1.18016715 15.4375 1.53125 C22.07968673 2.38381256 28.81561164 2.10410082 35.5 2.0625 C36.90885258 2.05747533 38.31770689 2.05291413 39.7265625 2.04882812 C43.15108638 2.0371003 46.57552047 2.02068691 50 2 C46.45849266 4.1928014 43.58752922 4.2450642 39.46875 4.23046875 C38.18226563 4.22853516 36.89578125 4.22660156 35.5703125 4.22460938 C34.90032227 4.21840576 34.23033203 4.21220215 33.54003906 4.20581055 C31.53457461 4.18781033 29.52898249 4.18653192 27.5234375 4.18554688 C4.67763201 4.08335391 4.67763201 4.08335391 0 0 Z " fill="#173551" transform="translate(128,282)"/>
<path d="M0 0 C0.5625 1.9375 0.5625 1.9375 1 4 C0.67 4.33 0.34 4.66 0 5 C1.0058313 5.05945801 1.0058313 5.05945801 2.03198242 5.12011719 C5.08533575 5.31126529 8.13607073 5.53034102 11.1875 5.75 C12.24259766 5.811875 13.29769531 5.87375 14.38476562 5.9375 C24.0286679 6.66763771 24.0286679 6.66763771 28 11 C27.67 11.66 27.34 12.32 27 13 C26.47865479 12.71995117 25.95730957 12.43990234 25.42016602 12.15136719 C19.18583479 9.06185963 13.83855576 8.35565291 6.9375 8.25 C5.49600586 8.20552734 5.49600586 8.20552734 4.02539062 8.16015625 C1.68351369 8.09024948 -0.65741414 8.03716864 -3 8 C-2.45276317 4.62537285 -1.9451 2.91765 0 0 Z " fill="#D3EEFA" transform="translate(120,105)"/>
<path d="M0 0 C0.66 0.33 1.32 0.66 2 1 C1.67 1.99 1.34 2.98 1 4 C0.01 4.33 -0.98 4.66 -2 5 C-5.59333085 8.8113315 -5.59333085 8.8113315 -7.86328125 13.43359375 C-9.25917825 16.58515502 -11.00178925 18.10150808 -13.625 20.3125 C-14.44226562 21.00988281 -15.25953125 21.70726563 -16.1015625 22.42578125 C-17.04128906 23.20501953 -17.04128906 23.20501953 -18 24 C-18 15.78125626 -5.51704439 5.9466503 0 0 Z " fill="#2264A1" transform="translate(68,37)"/>
<path d="M0 0 C3.63 0 7.26 0 11 0 C11 0.33 11 0.66 11 1 C7.7 1 4.4 1 1 1 C0.67 3.64 0.34 6.28 0 9 C0.78375 9.226875 1.5675 9.45375 2.375 9.6875 C5 11 5 11 6.3125 13.625 C6.6528125 14.800625 6.6528125 14.800625 7 16 C6.236875 15.649375 5.47375 15.29875 4.6875 14.9375 C1.95240621 13.67639116 1.95240621 13.67639116 -1 15 C-1 13.68 -1 12.36 -1 11 C-1.99 11.33 -2.98 11.66 -4 12 C-3.33501617 7.61110675 -1.81242323 4.0188515 0 0 Z " fill="#1D6CB0" transform="translate(166,134)"/>
<path d="M0 0 C1.32 0.66 2.64 1.32 4 2 C2.71111971 4.8751945 1.46733017 7.0071564 -1 9 C-2.32303717 9.3721042 -3.65737935 9.70630173 -5 10 C-5.99 10.66 -6.98 11.32 -8 12 C-7.84595887 6.91664275 -4.97931568 4.64245282 -1.49609375 1.35546875 C-1.00238281 0.90816406 -0.50867188 0.46085937 0 0 Z " fill="#75ADE2" transform="translate(90,76)"/>
<path d="M0 0 C0.33 0.99 0.66 1.98 1 3 C-3.625 7.875 -3.625 7.875 -7 9 C-8.15099374 10.29312614 -9.25050755 11.6328373 -10.3125 13 C-12.80654942 15.97163335 -13.60624325 16.88545258 -17.4375 18 C-18.283125 18 -19.12875 18 -20 18 C-13.7581137 11.55005083 -7.05002718 5.5518964 0 0 Z " fill="#1C344B" transform="translate(254,244)"/>
<path d="M0 0 C0.99 0 1.98 0 3 0 C3.33 1.98 3.66 3.96 4 6 C9.61 6 15.22 6 21 6 C20.67 7.98 20.34 9.96 20 12 C19.67 11.01 19.34 10.02 19 9 C13.72 8.67 8.44 8.34 3 8 C2.01 5.36 1.02 2.72 0 0 Z " fill="#2F75B0" transform="translate(163,115)"/>
<path d="M0 0 C-1.05565533 3.28426103 -2.61660352 4.57151556 -5.5 6.25 C-9 8 -9 8 -11 8 C-11.268125 8.598125 -11.53625 9.19625 -11.8125 9.8125 C-13.02493496 12.04593283 -13.94652273 13.49938199 -16 15 C-18.1015625 14.57421875 -18.1015625 14.57421875 -20 14 C-4.96954315 0 -4.96954315 0 0 0 Z " fill="#2265A4" transform="translate(90,22)"/>
<path d="M0 0 C1.98 1.65 3.96 3.3 6 5 C5.34 6.32 4.68 7.64 4 9 C3.34 8.67 2.68 8.34 2 8 C2 6.35 2 4.7 2 3 C1.01 3 0.02 3 -1 3 C-1.185625 3.721875 -1.37125 4.44375 -1.5625 5.1875 C-3.53334841 9.04350775 -6.39798015 10.73669876 -10 13 C-10.66 12.67 -11.32 12.34 -12 12 C-8.04 8.04 -4.08 4.08 0 0 Z " fill="#A4D1F6" transform="translate(120,169)"/>
<path d="M0 0 C4.3177458 0.50797009 8.03302114 1.19682779 12 3 C12 3.66 12 4.32 12 5 C12.61746094 5.09796875 13.23492187 5.1959375 13.87109375 5.296875 C20.06564802 6.39058626 25.37341119 8.20029639 31 11 C27.51665635 12.22141921 25.62540485 11.78383218 22.2265625 10.453125 C21.3190625 10.1025 20.4115625 9.751875 19.4765625 9.390625 C18.53554687 9.01421875 17.59453125 8.6378125 16.625 8.25 C15.69171875 7.8890625 14.7584375 7.528125 13.796875 7.15625 C9.07389969 5.30987438 4.48408772 3.36951793 0 1 C0 0.67 0 0.34 0 0 Z " fill="#25609A" transform="translate(97,269)"/>
<path d="M0 0 C1.32 0.33 2.64 0.66 4 1 C2.91332031 2.16015625 2.91332031 2.16015625 1.8046875 3.34375 C-3.47501045 9.01849015 -8.49777795 14.67255279 -13 21 C-13.33 19.68 -13.66 18.36 -14 17 C-13.34 17 -12.68 17 -12 17 C-12 16.34 -12 15.68 -12 15 C-11.34 15 -10.68 15 -10 15 C-9.731875 14.443125 -9.46375 13.88625 -9.1875 13.3125 C-8.795625 12.549375 -8.40375 11.78625 -8 11 C-7.566875 10.13375 -7.13375 9.2675 -6.6875 8.375 C-4.71157349 5.5940664 -3.22052097 4.95745218 0 4 C0 2.68 0 1.36 0 0 Z " fill="#1C3249" transform="translate(63,38)"/>
<path d="M0 0 C4.41022072 3.17247485 8.59828036 6.47428984 12.625 10.125 C15.92988225 13.11485881 19.20786342 15.66637749 23 18 C22.01 18.33 21.02 18.66 20 19 C18.0625 17.85546875 18.0625 17.85546875 16 16.1875 C13.69617671 14.35054999 11.45723941 12.63815961 9 11 C9 10.34 9 9.68 9 9 C8.443125 8.938125 7.88625 8.87625 7.3125 8.8125 C3.98470782 7.64327572 2.26866168 5.64677196 0 3 C0 2.01 0 1.02 0 0 Z " fill="#1B344D" transform="translate(63,244)"/>
<path d="M0 0 C0 3 0 3 -2 5.1875 C-2.66 5.785625 -3.32 6.38375 -4 7 C-2.81819318 8.38645369 -2.81819318 8.38645369 0.5 8.4375 C1.655 8.623125 2.81 8.80875 4 9 C4.33 9.66 4.66 10.32 5 11 C2.36 11.66 -0.28 12.32 -3 13 C-3.66 12.01 -4.32 11.02 -5 10 C-5.99 10.66 -6.98 11.32 -8 12 C-8.66 11.34 -9.32 10.68 -10 10 C-6.7 6.7 -3.4 3.4 0 0 Z " fill="#2572B7" transform="translate(113,189)"/>
<path d="M0 0 C1.38923761 4.16771282 -0.00560407 7.26649445 -1.25 11.3125 C-1.46785156 12.05951172 -1.68570312 12.80652344 -1.91015625 13.57617188 C-3.22799977 17.96513027 -4.81117047 21.95066537 -7 26 C-9.45438163 19.60277304 -5.39906357 11.2503497 -2.83984375 5.3046875 C-1.9428807 3.5107614 -0.97997729 1.74995945 0 0 Z " fill="#2466A4" transform="translate(290,176)"/>
<path d="M0 0 C0.625 1.8125 0.625 1.8125 1 4 C0.01 5.485 0.01 5.485 -1 7 C9.56 7 20.12 7 31 7 C31 7.33 31 7.66 31 8 C19.78 8 8.56 8 -3 8 C-2 3 -2 3 0 0 Z " fill="#BEE1F7" transform="translate(120,125)"/>
<path d="M0 0 C0.66 0 1.32 0 2 0 C2.67154933 1.28913487 3.33708859 2.58140204 4 3.875 C4.37125 4.59429687 4.7425 5.31359375 5.125 6.0546875 C6 8 6 8 6 10 C6.66 10 7.32 10 8 10 C12 16.75 12 16.75 12 19 C12.66 19 13.32 19 14 19 C14 20.65 14 22.3 14 24 C13.67 23.34 13.34 22.68 13 22 C12.01 21.67 11.02 21.34 10 21 C9.2235845 19.34933648 8.45983877 17.69015353 7.79443359 15.99169922 C6.50168014 12.75067812 4.88901526 9.6727441 3.3125 6.5625 C2.99216797 5.92634766 2.67183594 5.29019531 2.34179688 4.63476562 C1.56305578 3.08890643 0.78179666 1.54431613 0 0 Z " fill="#2667A2" transform="translate(36,203)"/>
<path d="M0 0 C1.32 0.33 2.64 0.66 4 1 C4 2.32 4 3.64 4 5 C0.37313728 7.96743313 -1.2453678 9 -6 9 C-4.47291037 5.56404834 -2.40072955 2.88087546 0 0 Z " fill="#77AEE2" transform="translate(109,60)"/>
<path d="M0 0 C3.91665108 -0.02904864 7.8332744 -0.04681517 11.75 -0.0625 C12.86117187 -0.07087891 13.97234375 -0.07925781 15.1171875 -0.08789062 C16.18710938 -0.09111328 17.25703125 -0.09433594 18.359375 -0.09765625 C19.34389648 -0.10289307 20.32841797 -0.10812988 21.34277344 -0.11352539 C23.77394192 -0.00965794 25.73950168 0.09922176 28 1 C28.33 1.99 28.66 2.98 29 4 C21.49090909 3.10909091 21.49090909 3.10909091 18.75 2.5 C15.072783 1.83141509 11.41547761 1.64072309 7.6875 1.4375 C6.94693359 1.39431641 6.20636719 1.35113281 5.44335938 1.30664062 C3.62908536 1.20129568 1.8145645 1.10021684 0 1 C0 0.67 0 0.34 0 0 Z " fill="#D1EBF8" transform="translate(151,72)"/>
<path d="M0 0 C0 0.99 0 1.98 0 3 C-4.28853694 4.88695626 -8.52761347 6.58192622 -13 8 C-13 8.66 -13 9.32 -13 10 C-13.94875 10.309375 -14.8975 10.61875 -15.875 10.9375 C-18.86080408 11.87394742 -18.86080408 11.87394742 -21 13 C-21.66 12.34 -22.32 11.68 -23 11 C-21.22882813 10.18595703 -21.22882813 10.18595703 -19.421875 9.35546875 C-17.86446953 8.63305778 -16.30718414 7.91038792 -14.75 7.1875 C-13.97269531 6.83107422 -13.19539062 6.47464844 -12.39453125 6.10742188 C-8.69601161 4.38460717 -3.82904818 0 0 0 Z " fill="#2470AD" transform="translate(203,209)"/>
<path d="M0 0 C4.19490975 2.20511185 6.73864467 4.74767593 9.6875 8.4375 C10.45449219 9.38496094 11.22148437 10.33242188 12.01171875 11.30859375 C13.63829321 13.51038119 14.89877391 15.50899126 16 18 C14.72390677 17.09066991 13.45434447 16.17217147 12.1875 15.25 C11.47980469 14.73953125 10.77210938 14.2290625 10.04296875 13.703125 C7.94979179 11.95814383 6.47376367 10.2873556 5 8 C5 7.34 5 6.68 5 6 C4.34 6 3.68 6 3 6 C0 2.53846154 0 2.53846154 0 0 Z " fill="#25659D" transform="translate(250,39)"/>
<path d="M0 0 C1 3 1 3 -0.17578125 5.38671875 C-2.03066508 8.04392921 -4.00658359 10.41706722 -6.1875 12.8125 C-6.90292969 13.60269531 -7.61835937 14.39289063 -8.35546875 15.20703125 C-8.89816406 15.79871094 -9.44085938 16.39039062 -10 17 C-10.33 16.34 -10.66 15.68 -11 15 C-3.70159453 4.44191344 -3.70159453 4.44191344 0 0 Z " fill="#2273BF" transform="translate(78,71)"/>
<path d="M0 0 C0.66 1.32 1.32 2.64 2 4 C-1.75 7 -1.75 7 -4 7 C-4.20625 7.639375 -4.4125 8.27875 -4.625 8.9375 C-6 11 -6 11 -9.125 11.75 C-10.548125 11.87375 -10.548125 11.87375 -12 12 C-10.33333333 10.33333333 -8.66666667 8.66666667 -7 7 C-6.1646875 6.1028125 -6.1646875 6.1028125 -5.3125 5.1875 C-4 4 -4 4 -2 4 C-1.34 2.68 -0.68 1.36 0 0 Z " fill="#2A70AE" transform="translate(215,197)"/>
<path d="M0 0 C5.28 0 10.56 0 16 0 C15 4 15 4 13 6 C13 4.68 13 3.36 13 2 C6.565 2.495 6.565 2.495 0 3 C0 2.01 0 1.02 0 0 Z " fill="#C0E2EF" transform="translate(217,110)"/>
<path d="M0 0 C0.66 0 1.32 0 2 0 C3.46845421 5.47332932 2.44038726 8.11922548 0 13 C-4.875 9.375 -4.875 9.375 -6 6 C-4.35 6 -2.7 6 -1 6 C-0.67 4.02 -0.34 2.04 0 0 Z " fill="#2375BD" transform="translate(153,160)"/>
<path d="M0 0 C0.97591583 3.38317487 0.85856655 5.5657338 0 9 C-0.66 9 -1.32 9 -2 9 C-2.66 12.63 -3.32 16.26 -4 20 C-4.66 20 -5.32 20 -6 20 C-5.57534294 12.63927766 -3.01651083 6.67862176 0 0 Z " fill="#2466A4" transform="translate(35,85)"/>
<path d="M0 0 C2.9375 0.75 2.9375 0.75 6 2 C6.875 4.125 6.875 4.125 7 6 C2.06729471 7.6442351 -0.54024193 6.18615592 -5 4 C-2.50935112 3.31292445 -0.62113708 3 2 3 C1.34 2.67 0.68 2.34 0 2 C0 1.34 0 0.68 0 0 Z " fill="#5C9EDC" transform="translate(195,55)"/>
<path d="M0 0 C-2.14082246 2.14082246 -3.30767976 2.59262865 -6.1328125 3.5078125 C-6.93847656 3.77207031 -7.74414062 4.03632813 -8.57421875 4.30859375 C-9.41597656 4.57800781 -10.25773437 4.84742188 -11.125 5.125 C-11.97449219 5.40214844 -12.82398437 5.67929688 -13.69921875 5.96484375 C-15.79778673 6.6486468 -17.89801696 7.32678277 -20 8 C-20 7.34 -20 6.68 -20 6 C-6.1082996 -0.35931174 -6.1082996 -0.35931174 0 0 Z " fill="#1D3E5C" transform="translate(121,7)"/>
<path d="M0 0 C4.32920863 4.32920863 4.125 10.70918435 4.125 16.5 C4.09323089 18.33353155 4.05498946 20.1670179 4 22 C3.67 22 3.34 22 3 22 C2.49133331 19.64741656 1.9929375 17.29338596 1.5 14.9375 C1.35691406 14.28072266 1.21382813 13.62394531 1.06640625 12.94726562 C0.16047545 8.56860012 -0.14031146 4.49581296 0 0 Z " fill="#1F3345" transform="translate(292,110)"/>
<path d="M0 0 C2.475 0.99 2.475 0.99 5 2 C4.34 4.31 3.68 6.62 3 9 C-3.75 8.25 -3.75 8.25 -6 6 C-3.36 6 -0.72 6 2 6 C2 4.68 2 3.36 2 2 C1.34 2 0.68 2 0 2 C0 1.34 0 0.68 0 0 Z " fill="#C8E8F6" transform="translate(191,72)"/>
<path d="M0 0 C-3.2650812 1.87135349 -6.22977025 2.50610676 -9.9375 3.0625 C-13.64669117 3.6298984 -17.32591796 4.23541203 -21 5 C-21 4.01 -21 3.02 -21 2 C-13.94546999 0.79556805 -7.16562789 -0.28100502 0 0 Z " fill="#193755" transform="translate(144,2)"/>
<path d="M0 0 C0.66 1.32 1.32 2.64 2 4 C-2.455 7.96 -2.455 7.96 -7 12 C-7.66 11.67 -8.32 11.34 -9 11 C-6.03 7.37 -3.06 3.74 0 0 Z " fill="#1E3248" transform="translate(264,232)"/>
<path d="M0 0 C0.33 0 0.66 0 1 0 C1.04898438 0.92683594 1.09796875 1.85367188 1.1484375 2.80859375 C1.22320312 4.00613281 1.29796875 5.20367187 1.375 6.4375 C1.44460937 7.63246094 1.51421875 8.82742187 1.5859375 10.05859375 C1.72257812 11.02925781 1.85921875 11.99992188 2 13 C2.66 13.33 3.32 13.66 4 14 C4 11.36 4 8.72 4 6 C4.33 6 4.66 6 5 6 C5 9.3 5 12.6 5 16 C3.68 16.33 2.36 16.66 1 17 C0 16 0 16 -0.09765625 12.40234375 C-0.0909822 10.91403133 -0.07902183 9.42573568 -0.0625 7.9375 C-0.05798828 7.17888672 -0.05347656 6.42027344 -0.04882812 5.63867188 C-0.0370068 3.75908129 -0.01907078 1.87953101 0 0 Z " fill="#5FA2E1" transform="translate(63,129)"/>
<path d="M0 0 C3.16673508 4.75010261 4.25013581 8.62705984 4.625 14.3125 C4.69976562 15.38113281 4.77453125 16.44976562 4.8515625 17.55078125 C4.90054687 18.35902344 4.94953125 19.16726562 5 20 C4.34 20 3.68 20 3 20 C2.49550598 17.41747107 1.99625699 14.83411297 1.5 12.25 C1.35691406 11.52039063 1.21382813 10.79078125 1.06640625 10.0390625 C0.41111121 6.60656468 0 3.50830509 0 0 Z " fill="#245F99" transform="translate(288,101)"/>
<path d="M0 0 C0 4.64029623 -0.29571768 6.24418483 -3.5625 9.75 C-4.7690625 10.86375 -4.7690625 10.86375 -6 12 C-6.99 11.67 -7.98 11.34 -9 11 C-7.87672229 9.54033966 -6.75131706 8.08231636 -5.625 6.625 C-4.99851562 5.81289062 -4.37203125 5.00078125 -3.7265625 4.1640625 C-2 2 -2 2 0 0 Z " fill="#2372B7" transform="translate(107,95)"/>
<path d="M0 0 C-4.455 1.485 -4.455 1.485 -9 3 C-9 3.66 -9 4.32 -9 5 C-13.455 6.485 -13.455 6.485 -18 8 C-18 7.34 -18 6.68 -18 6 C-16.25318707 5.01515892 -14.5024149 4.03733813 -12.75 3.0625 C-11.28820312 2.24458984 -11.28820312 2.24458984 -9.796875 1.41015625 C-5.91287172 -0.54811915 -4.17924041 -1.39308014 0 0 Z " fill="#2170BB" transform="translate(122,44)"/>
<path d="M0 0 C-3.11887177 1.53364539 -6.24597622 3.04968893 -9.375 4.5625 C-10.26445313 5.00013672 -11.15390625 5.43777344 -12.0703125 5.88867188 C-12.92109375 6.29794922 -13.771875 6.70722656 -14.6484375 7.12890625 C-15.43395996 7.51119385 -16.21948242 7.89348145 -17.02880859 8.28735352 C-17.67930176 8.52252686 -18.32979492 8.7577002 -19 9 C-19.66 8.67 -20.32 8.34 -21 8 C-19.10673459 6.87068379 -17.2102736 5.74672384 -15.3125 4.625 C-14.25675781 3.99851562 -13.20101562 3.37203125 -12.11328125 2.7265625 C-4.7042605 -1.38232981 -4.7042605 -1.38232981 0 0 Z " fill="#23639E" transform="translate(111,13)"/>
<path d="M0 0 C2.1875 0.3125 2.1875 0.3125 4 1 C-1.93998566 5.20145327 -7.66264111 8.10520014 -15 9 C-15 8.34 -15 7.68 -15 7 C-14.16855469 6.74605469 -13.33710938 6.49210937 -12.48046875 6.23046875 C-11.39378906 5.88628906 -10.30710938 5.54210937 -9.1875 5.1875 C-8.10855469 4.85105469 -7.02960938 4.51460938 -5.91796875 4.16796875 C-3.12565751 3.05029665 -1.98857729 2.13772059 0 0 Z " fill="#22629D" transform="translate(224,265)"/>
<path d="M0 0 C0.82638376 2.89234315 1 4.88742431 1 8 C1.66 8.33 2.32 8.66 3 9 C1.92598892 11.91517292 1.22189824 13.77810176 -1 16 C-3.24576669 9.38089819 -2.94151148 6.3355632 0 0 Z " fill="#62A2DD" transform="translate(244,171)"/>
<path d="M0 0 C0.33 0 0.66 0 1 0 C1.28571429 8.57142857 1.28571429 8.57142857 -1 12 C-1 10.35 -1 8.7 -1 7 C-3.475 8.485 -3.475 8.485 -6 10 C-5.67 7.03 -5.34 4.06 -5 1 C-4.34 2.32 -3.68 3.64 -3 5 C-2.525625 4.175 -2.05125 3.35 -1.5625 2.5 C-1.046875 1.675 -0.53125 0.85 0 0 Z " fill="#5097D5" transform="translate(253,151)"/>
<path d="M0 0 C0.66 0 1.32 0 2 0 C1.96519531 0.59167969 1.93039063 1.18335938 1.89453125 1.79296875 C1.72436825 6.7601076 1.83144791 9.90728689 5 14 C3.125 14.625 3.125 14.625 1 15 C0.34 14.34 -0.32 13.68 -1 13 C-0.9765625 9.9609375 -0.9765625 9.9609375 -0.625 6.375 C-0.51414063 5.18648438 -0.40328125 3.99796875 -0.2890625 2.7734375 C-0.19367188 1.85820313 -0.09828125 0.94296875 0 0 Z " fill="#3177B2" transform="translate(238,60)"/>
<path d="M0 0 C0.75 1.625 0.75 1.625 1 4 C-0.6875 6.875 -0.6875 6.875 -3 10 C-3.75645302 11.12067115 -4.50677572 12.24551221 -5.25 13.375 C-5.8275 14.24125 -6.405 15.1075 -7 16 C-7.99 15.34 -8.98 14.68 -10 14 C-9.61328125 13.57589844 -9.2265625 13.15179688 -8.828125 12.71484375 C-5.2605903 8.69695194 -2.51826571 4.74596229 0 0 Z " fill="#2372BC" transform="translate(241,191)"/>
<path d="M0 0 C0.66 0 1.32 0 2 0 C0.59601721 4.10110762 -1.37087038 6.98089159 -4.125 10.3125 C-4.84945313 11.19550781 -5.57390625 12.07851562 -6.3203125 12.98828125 C-7.15175781 13.98408203 -7.15175781 13.98408203 -8 15 C-8.33 14.34 -8.66 13.68 -9 13 C-8.67 12.34 -8.34 11.68 -8 11 C-7.34 11 -6.68 11 -6 11 C-5.67 9.02 -5.34 7.04 -5 5 C-4.01 5 -3.02 5 -2 5 C-2 4.34 -2 3.68 -2 3 C-1.34 3 -0.68 3 0 3 C0 2.01 0 1.02 0 0 Z " fill="#2466A4" transform="translate(268,223)"/>
<path d="M0 0 C5.57522124 1.36283186 5.57522124 1.36283186 7.625 4.4375 C8.07875 5.283125 8.5325 6.12875 9 7 C11.06954847 8.78344178 11.06954847 8.78344178 13 10 C12.01 10.66 11.02 11.32 10 12 C8.33032474 10.19019128 6.66417692 8.3773524 5 6.5625 C4.28457031 5.7880957 4.28457031 5.7880957 3.5546875 4.99804688 C0 1.11328125 0 1.11328125 0 0 Z " fill="#3077B3" transform="translate(159,181)"/>
<path d="M0 0 C0.33 2.97 0.66 5.94 1 9 C0.01 9.33 -0.98 9.66 -2 10 C-1.67 7.03 -1.34 4.06 -1 1 C-4.3 1.66 -7.6 2.32 -11 3 C-10 1 -10 1 -8.3125 0.375 C-5.51555886 -0.07855802 -2.82858003 -0.06428591 0 0 Z " fill="#2F7ABC" transform="translate(216,123)"/>
<path d="M0 0 C0.66 0 1.32 0 2 0 C2.20496094 0.78246094 2.40992188 1.56492187 2.62109375 2.37109375 C2.89050781 3.38300781 3.15992188 4.39492187 3.4375 5.4375 C3.83775391 6.95150391 3.83775391 6.95150391 4.24609375 8.49609375 C4.75978077 10.91752001 4.75978077 10.91752001 6 12 C6.04080783 13.99958364 6.04254356 16.00045254 6 18 C3.98996365 14.98494548 3.00828459 12.42503788 1.875 9 C1.52179688 7.948125 1.16859375 6.89625 0.8046875 5.8125 C0 3 0 3 0 0 Z " fill="#1C354A" transform="translate(286,91)"/>
<path d="M0 0 C-1.37967008 2.75934016 -3.0542345 3.17538641 -5.8125 4.5 C-6.68519531 4.9228125 -7.55789062 5.345625 -8.45703125 5.78125 C-9.29621094 6.1834375 -10.13539062 6.585625 -11 7 C-12.33467651 7.66397352 -13.66853406 8.32961155 -15 9 C-15 8.01 -15 7.02 -15 6 C-14.01 6 -13.02 6 -12 6 C-12 5.34 -12 4.68 -12 4 C-4.71428571 -0.57142857 -4.71428571 -0.57142857 0 0 Z " fill="#1D364E" transform="translate(97,17)"/>
<path d="M0 0 C1.32 0.66 2.64 1.32 4 2 C3.34 2.66 2.68 3.32 2 4 C1.01 4 0.02 4 -1 4 C-1.66 5.32 -2.32 6.64 -3 8 C-4.98 8 -6.96 8 -9 8 C-7.88625 7.13375 -7.88625 7.13375 -6.75 6.25 C-4.33912357 4.27746474 -2.15957299 2.23955718 0 0 Z " fill="#2D77B7" transform="translate(161,144)"/>
<path d="M0 0 C1.56454159 4.02014661 0.46223974 7.69925681 -0.4375 11.75 C-0.58509766 12.44738281 -0.73269531 13.14476563 -0.88476562 13.86328125 C-1.24868033 15.5772021 -1.62329068 17.28884581 -2 19 C-2.33 19 -2.66 19 -3 19 C-3 14.05 -3 9.1 -3 4 C-2.34 3.67 -1.68 3.34 -1 3 C-0.67 2.01 -0.34 1.02 0 0 Z " fill="#1F4062" transform="translate(27,106)"/>
<path d="M0 0 C0.33 0 0.66 0 1 0 C1.35796233 4.31889337 0.3887032 6.65699842 -1.875 10.3125 C-2.40867187 11.19550781 -2.94234375 12.07851562 -3.4921875 12.98828125 C-3.98976562 13.65214844 -4.48734375 14.31601563 -5 15 C-5.66 15 -6.32 15 -7 15 C-5.45454854 9.52067211 -2.84456788 4.88570819 0 0 Z " fill="#25649E" transform="translate(43,69)"/>
<path d="M0 0 C0.66 0.33 1.32 0.66 2 1 C0.6875 3.5 0.6875 3.5 -1 6 C-1.99 6 -2.98 6 -4 6 C-4 6.66 -4 7.32 -4 8 C-6.375 9.6875 -6.375 9.6875 -9 11 C-9.66 10.67 -10.32 10.34 -11 10 C-3.70159453 2.51708428 -3.70159453 2.51708428 0 0 Z " fill="#2E77B1" transform="translate(119,84)"/>
<path d="M0 0 C3.80199928 1.51908323 5.77187204 3.77448786 8.3125 6.9375 C9.03050781 7.81277344 9.74851562 8.68804687 10.48828125 9.58984375 C10.98714844 10.38519531 11.48601562 11.18054688 12 12 C11.67 12.99 11.34 13.98 11 15 C10.18595703 13.96939453 10.18595703 13.96939453 9.35546875 12.91796875 C8.64003906 12.01691406 7.92460937 11.11585937 7.1875 10.1875 C6.47980469 9.29417969 5.77210938 8.40085937 5.04296875 7.48046875 C3.12613931 5.05692408 3.12613931 5.05692408 1.23828125 3.30078125 C0 2 0 2 0 0 Z " fill="#1B364D" transform="translate(255,42)"/>
<path d="M0 0 C0.66 0.33 1.32 0.66 2 1 C1.36191406 1.61488281 0.72382813 2.22976562 0.06640625 2.86328125 C-1.17302734 4.07564453 -1.17302734 4.07564453 -2.4375 5.3125 C-3.26121094 6.11300781 -4.08492187 6.91351563 -4.93359375 7.73828125 C-7.19403477 9.90470808 -7.19403477 9.90470808 -8 13 C-9.32 12.67 -10.64 12.34 -12 12 C-8.04 8.04 -4.08 4.08 0 0 Z " fill="#2470B3" transform="translate(190,157)"/>
<path d="M0 0 C0.66 0.33 1.32 0.66 2 1 C0.29374499 3.78388975 -0.47626739 4.85384206 -3.6875 5.75 C-4.8321875 5.87375 -4.8321875 5.87375 -6 6 C-6.33 6.99 -6.66 7.98 -7 9 C-8.32 8.67 -9.64 8.34 -11 8 C-7.37 5.36 -3.74 2.72 0 0 Z " fill="#D7F1F9" transform="translate(117,76)"/>
<path d="M0 0 C3.2531655 3.74114033 5.44374911 8.31315138 7 13 C6.67 13.66 6.34 14.32 6 15 C2.47086025 9.98627748 0.38528505 6.16456078 0 0 Z " fill="#2765A1" transform="translate(278,76)"/>
<path d="M0 0 C-2.26504965 1.19984797 -4.53589888 2.38494769 -6.8125 3.5625 C-7.45509766 3.90474609 -8.09769531 4.24699219 -8.75976562 4.59960938 C-10.46926395 5.4765023 -12.23321294 6.24515617 -14 7 C-14.99 6.67 -15.98 6.34 -17 6 C-15.5839401 5.20724852 -14.16712447 4.41584688 -12.75 3.625 C-11.56664062 2.96371094 -11.56664062 2.96371094 -10.359375 2.2890625 C-9.58078125 1.86367187 -8.8021875 1.43828125 -8 1 C-7.32453125 0.59523437 -6.6490625 0.19046875 -5.953125 -0.2265625 C-3.56028467 -1.17412727 -2.38296818 -0.85106007 0 0 Z " fill="#1E6EB9" transform="translate(207,221)"/>
<path d="M0 0 C-1.26886964 1.12721436 -2.54017562 2.25168658 -3.8125 3.375 C-4.52019531 4.00148437 -5.22789062 4.62796875 -5.95703125 5.2734375 C-8 7 -8 7 -11 9 C-10.67 7.68 -10.34 6.36 -10 5 C-9.34 5 -8.68 5 -8 5 C-8 4.01 -8 3.02 -8 2 C-7.34 2 -6.68 2 -6 2 C-6 1.34 -6 0.68 -6 0 C-3.50907189 -1.24546405 -2.58919267 -0.7767578 0 0 Z " fill="#A8D3F8" transform="translate(205,143)"/>
<path d="M0 0 C1.32 0 2.64 0 4 0 C3.85764543 1.72945653 3.71095618 3.45855654 3.5625 5.1875 C3.48128906 6.15042969 3.40007812 7.11335937 3.31640625 8.10546875 C3.02333849 10.78649602 2.57296246 13.3662986 2 16 C1.67 16 1.34 16 1 16 C-0.2019586 9.77166905 0.06838081 6.62870885 3 1 C2.01 0.67 1.02 0.34 0 0 Z " fill="#9DCDF4" transform="translate(211,124)"/>
<path d="M0 0 C-0.33 0.99 -0.66 1.98 -1 3 C-4.96 3 -8.92 3 -13 3 C-13 2.34 -13 1.68 -13 1 C-8.62426048 0.40667939 -4.42471556 -0.13827236 0 0 Z " fill="#D0EDF9" transform="translate(179,130)"/>
<path d="M0 0 C0.33 0 0.66 0 1 0 C1.37634203 6.80203375 0.77471079 11.75690073 -2 18 C-3.51553092 14.02549507 -2.49888623 10.79518851 -1.5625 6.75 C-1.27503906 5.48671875 -0.98757812 4.2234375 -0.69140625 2.921875 C-0.46324219 1.95765625 -0.23507813 0.9934375 0 0 Z " fill="#2369AB" transform="translate(28,105)"/>
<path d="M0 0 C-1.6209213 1.17232685 -3.24686833 2.3377077 -4.875 3.5 C-5.77992187 4.1496875 -6.68484375 4.799375 -7.6171875 5.46875 C-10 7 -10 7 -12 7 C-12 6.34 -12 5.68 -12 5 C-11.34 5 -10.68 5 -10 5 C-9.67 4.01 -9.34 3.02 -9 2 C-5.96271914 -1.03728086 -4.06215635 -1.35405212 0 0 Z " fill="#2C72AC" transform="translate(120,75)"/>
<path d="M0 0 C6.13602988 1.41600689 10.26698362 5.0663375 15 9 C14.01 9.495 14.01 9.495 13 10 C10.875 9.0625 10.875 9.0625 9 8 C9 7.34 9 6.68 9 6 C6.34771188 4.92474806 3.71631546 3.90543849 1 3 C0.67 2.01 0.34 1.02 0 0 Z " fill="#2566A1" transform="translate(226,21)"/>
<path d="M0 0 C0.33 1.32 0.66 2.64 1 4 C1.928125 4.2165625 1.928125 4.2165625 2.875 4.4375 C5 5 5 5 7 6 C5 8 5 8 2.5 8.25 C0 8 0 8 -2 6 C-1.44444444 1.44444444 -1.44444444 1.44444444 0 0 Z " fill="#A0D3F9" transform="translate(79,212)"/>
<path d="M0 0 C0.33 0.66 0.66 1.32 1 2 C-1.63886654 6.2026393 -4.36440339 9.56638098 -8 13 C-8.99 12.67 -9.98 12.34 -11 12 C-10.29875 11.319375 -9.5975 10.63875 -8.875 9.9375 C-5.72065663 6.79219487 -2.86065696 3.4111614 0 0 Z " fill="#60A1DB" transform="translate(230,198)"/>
<path d="M0 0 C0.66 0.33 1.32 0.66 2 1 C1.67 1.99 1.34 2.98 1 4 C0.01 4.33 -0.98 4.66 -2 5 C-3.88455518 6.85978416 -3.88455518 6.85978416 -5.6875 9.0625 C-6.62142578 10.16271484 -6.62142578 10.16271484 -7.57421875 11.28515625 C-8.04472656 11.85105469 -8.51523437 12.41695312 -9 13 C-9.66 12.67 -10.32 12.34 -11 12 C-7.37 8.04 -3.74 4.08 0 0 Z " fill="#266196" transform="translate(68,37)"/>
<path d="M0 0 C0.99 0.66 1.98 1.32 3 2 C1.85760183 3.33627775 0.71098945 4.66895388 -0.4375 6 C-1.07558594 6.7425 -1.71367187 7.485 -2.37109375 8.25 C-2.90863281 8.8275 -3.44617188 9.405 -4 10 C-4.33 10 -4.66 10 -5 10 C-5 8.35 -5 6.7 -5 5 C-3.35 4.67 -1.7 4.34 0 4 C0 2.68 0 1.36 0 0 Z " fill="#2264A1" transform="translate(256,237)"/>
<path d="M0 0 C-0.99 0.495 -0.99 0.495 -2 1 C-2 1.66 -2 2.32 -2 3 C-5.3 2.67 -8.6 2.34 -12 2 C-12 1.34 -12 0.68 -12 0 C-7.91556885 -1.53166168 -4.20544343 -0.63081652 0 0 Z " fill="#6FABE1" transform="translate(136,232)"/>
<path d="M0 0 C0.33 0 0.66 0 1 0 C1 2.31 1 4.62 1 7 C-0.65 7.33 -2.3 7.66 -4 8 C-5.32 6.02 -6.64 4.04 -8 2 C-5 2 -5 2 -3.4375 3.4375 C-2.963125 3.953125 -2.48875 4.46875 -2 5 C-1.34 5.33 -0.68 5.66 0 6 C0 4.02 0 2.04 0 0 Z " fill="#D1F0FA" transform="translate(96,177)"/>
<path d="M0 0 C0.99 0.33 1.98 0.66 3 1 C3 1.99 3 2.98 3 4 C2.278125 4.2475 1.55625 4.495 0.8125 4.75 C-2.24713266 6.10983674 -4.4673738 7.82917754 -7 10 C-5.33248852 6.05860922 -2.77289351 3.2107188 0 0 Z " fill="#2973AF" transform="translate(168,159)"/>
<path d="M0 0 C-1.11375 0.4125 -2.2275 0.825 -3.375 1.25 C-5.99320695 2.35546516 -6.83493089 2.74880787 -8.4375 5.1875 C-8.7159375 6.0846875 -8.7159375 6.0846875 -9 7 C-10.32 5.35 -11.64 3.7 -13 2 C-11.5882217 1.46605821 -10.17029756 0.94834896 -8.75 0.4375 C-7.96109375 0.14746094 -7.1721875 -0.14257812 -6.359375 -0.44140625 C-3.80896548 -1.04522837 -2.44677771 -0.8473932 0 0 Z " fill="#A7D3F6" transform="translate(204,128)"/>
<path d="M0 0 C-1.98 0.66 -3.96 1.32 -6 2 C-6 2.66 -6 3.32 -6 4 C-9.3 4 -12.6 4 -16 4 C-12.88384645 2.44192322 -10.17063974 1.32086738 -6.875 0.3125 C-6.00617188 0.04050781 -5.13734375 -0.23148438 -4.2421875 -0.51171875 C-2 -1 -2 -1 0 0 Z " fill="#C0E3F3" transform="translate(185,210)"/>
<path d="M0 0 C0.66 0.33 1.32 0.66 2 1 C1.04901734 2.98270912 0.08899297 4.96108379 -0.875 6.9375 C-1.40867188 8.03964844 -1.94234375 9.14179688 -2.4921875 10.27734375 C-4 13 -4 13 -6 14 C-5.41892368 10.2397015 -4.34800504 7.46964968 -2.4375 4.1875 C-1.98246094 3.39730469 -1.52742187 2.60710937 -1.05859375 1.79296875 C-0.53458984 0.90544922 -0.53458984 0.90544922 0 0 Z " fill="#1E6EB9" transform="translate(255,186)"/>
<path d="M0 0 C1.08784335 3.31395986 1.07262544 3.83580335 -0.4375 7.25 C-0.953125 8.1575 -1.46875 9.065 -2 10 C-2.66 10 -3.32 10 -4 10 C-4.33 11.32 -4.66 12.64 -5 14 C-5.66 14 -6.32 14 -7 14 C-5.23570801 9.02790438 -2.6060834 4.56561939 0 0 Z " fill="#367AB2" transform="translate(230,175)"/>
<path d="M0 0 C0.99 0.33 1.98 0.66 3 1 C1.02 2.98 -0.96 4.96 -3 7 C-4.32 6.34 -5.64 5.68 -7 5 C-7 4.34 -7 3.68 -7 3 C-6.21625 2.87625 -5.4325 2.7525 -4.625 2.625 C-1.85942178 2.20882007 -1.85942178 2.20882007 0 0 Z " fill="#9CCDF6" transform="translate(163,162)"/>
<path d="M0 0 C0.66 0 1.32 0 2 0 C1.67 1.32 1.34 2.64 1 4 C0.34 4 -0.32 4 -1 4 C-1.268125 4.61875 -1.53625 5.2375 -1.8125 5.875 C-3 8 -3 8 -6 10 C-5.49396008 7.83125748 -5.00016187 6.00032373 -4 4 C-3.34 4 -2.68 4 -2 4 C-2 3.34 -2 2.68 -2 2 C-1.34 2 -0.68 2 0 2 C0 1.34 0 0.68 0 0 Z " fill="#2573BB" transform="translate(91,71)"/>
<path d="M0 0 C3.25524265 3.02272532 5.61820737 6.25718301 8 10 C7.67 10.66 7.34 11.32 7 12 C4 11 4 11 2 8 C1.18220159 5.35982365 0.6190511 2.69729409 0 0 Z " fill="#23649F" transform="translate(266,57)"/>
<path d="M0 0 C-6.93 3.465 -6.93 3.465 -14 7 C-11.67465239 2.34930477 -9.69055587 0.94960795 -4.875 -0.75 C-3 -1 -3 -1 0 0 Z " fill="#2171BA" transform="translate(119,56)"/>
<path d="M0 0 C1.75211782 0.25677589 3.50167936 0.53102953 5.25 0.8125 C6.22453125 0.96332031 7.1990625 1.11414063 8.203125 1.26953125 C11.12322338 2.03218264 12.74205815 3.03774101 15 5 C9.86496656 4.35812082 5.0056546 3.31727753 0 2 C0 1.34 0 0.68 0 0 Z " fill="#2667A8" transform="translate(190,6)"/>
<path d="M0 0 C8.97478992 -0.29915966 8.97478992 -0.29915966 12 2 C12.33 2.99 12.66 3.98 13 5 C11.39402675 4.54803755 9.79027492 4.08817673 8.1875 3.625 C6.84751953 3.24214844 6.84751953 3.24214844 5.48046875 2.8515625 C3 2 3 2 0 0 Z " fill="#1F3B5A" transform="translate(202,9)"/>
<path d="M0 0 C-1.35468295 4.87685861 -3.71675909 6.48592381 -8 9 C-8.66 8.67 -9.32 8.34 -10 8 C-8.71451591 6.66070495 -7.42141845 5.32871357 -6.125 4 C-5.04605469 2.88625 -5.04605469 2.88625 -3.9453125 1.75 C-2 0 -2 0 0 0 Z " fill="#1F71B6" transform="translate(98,207)"/>
<path d="M0 0 C0.66 0.33 1.32 0.66 2 1 C-1.3 3.64 -4.6 6.28 -8 9 C-8.33 7.68 -8.66 6.36 -9 5 C-8.195625 4.71125 -7.39125 4.4225 -6.5625 4.125 C-3.8673532 3.26737432 -3.8673532 3.26737432 -3 1 C-2.01 0.67 -1.02 0.34 0 0 Z " fill="#2A72AD" transform="translate(205,194)"/>
<path d="M0 0 C0.66 0 1.32 0 2 0 C1.39294514 4.12797305 0.06000669 7.37438822 -2 11 C-2.99 11.495 -2.99 11.495 -4 12 C-4 10.68 -4 9.36 -4 8 C-3.34 8 -2.68 8 -2 8 C-1.855625 7.236875 -1.71125 6.47375 -1.5625 5.6875 C-1 3 -1 3 0 0 Z " fill="#C8E8F7" transform="translate(164,133)"/>
<path d="M0 0 C2 2 2 2 2.25 5.5 C2 9 2 9 0 11 C-1.49297212 8.01405576 -1.11755228 5.29146376 -1 2 C-0.67 1.34 -0.34 0.68 0 0 Z " fill="#1764A6" transform="translate(236,60)"/>
<path d="M0 0 C0.66 0 1.32 0 2 0 C2.33 0.66 2.66 1.32 3 2 C5.02463255 2.65213292 5.02463255 2.65213292 7 3 C7.33 4.98 7.66 6.96 8 9 C6.84775972 8.07038578 5.70340824 7.1309875 4.5625 6.1875 C3.60537109 5.40439453 3.60537109 5.40439453 2.62890625 4.60546875 C1 3 1 3 0 0 Z " fill="#23629A" transform="translate(59,238)"/>
<path d="M0 0 C0 3.96018245 -1.18721244 6.5039097 -3 10 C-5.1875 10.9375 -5.1875 10.9375 -7 11 C-5.22054913 6.95579349 -2.60470327 3.53921513 0 0 Z " fill="#1E3855" transform="translate(272,221)"/>
<path d="M0 0 C0.66 0.33 1.32 0.66 2 1 C-0.64 3.64 -3.28 6.28 -6 9 C-6.66 8.67 -7.32 8.34 -8 8 C-6.49776416 3.79373966 -3.71449966 2.26099979 0 0 Z " fill="#5AA3E3" transform="translate(238,217)"/>
<path d="M0 0 C0.33 0 0.66 0 1 0 C0.88570603 1.77155654 0.75816963 3.54226229 0.625 5.3125 C0.55539063 6.29863281 0.48578125 7.28476563 0.4140625 8.30078125 C0 11 0 11 -2 14 C-2.66 14 -3.32 14 -4 14 C-3.79503906 13.32453125 -3.59007812 12.6490625 -3.37890625 11.953125 C-3.10949219 11.06109375 -2.84007812 10.1690625 -2.5625 9.25 C-2.16224609 7.92742187 -2.16224609 7.92742187 -1.75390625 6.578125 C-1.11531506 4.39434165 -0.53224167 2.21164502 0 0 Z " fill="#3073AD" transform="translate(235,160)"/>
<path d="M0 0 C2.475 0.495 2.475 0.495 5 1 C5.99 3.97 6.98 6.94 8 10 C6.33333333 8.33333333 4.66666667 6.66666667 3 5 C2.401875 4.443125 1.80375 3.88625 1.1875 3.3125 C0 2 0 2 0 0 Z " fill="#2772B3" transform="translate(139,156)"/>
<path d="M0 0 C0.66 0 1.32 0 2 0 C0.54955729 4.10958767 -1.51110752 7.43258745 -4 11 C-4.625 9.1875 -4.625 9.1875 -5 7 C-4.34 6.01 -3.68 5.02 -3 4 C-2.34 4 -1.68 4 -1 4 C-0.67 2.68 -0.34 1.36 0 0 Z " fill="#1D334A" transform="translate(47,59)"/>
<path d="M0 0 C0.99 0.66 1.98 1.32 3 2 C2.07767578 2.09087891 2.07767578 2.09087891 1.13671875 2.18359375 C0.32847656 2.26738281 -0.47976562 2.35117187 -1.3125 2.4375 C-2.11300781 2.51871094 -2.91351563 2.59992187 -3.73828125 2.68359375 C-6.16087179 2.95265693 -6.16087179 2.95265693 -9 4 C-9 3.01 -9 2.02 -9 1 C-5.98131566 -0.50934217 -3.32702771 -0.17510672 0 0 Z " fill="#1E70B3" transform="translate(249,56)"/>
<path d="M0 0 C3.7910119 1.44950455 7.3874638 3.15172566 11 5 C7.30581799 6.231394 4.7943739 5.64432764 1 5 C0.67 3.35 0.34 1.7 0 0 Z " fill="#2972B1" transform="translate(115,210)"/>
<path d="M0 0 C0.99 0.495 0.99 0.495 2 1 C1.01 1.495 1.01 1.495 0 2 C0 1.34 0 0.68 0 0 Z M-2 2 C-1.34 2.33 -0.68 2.66 0 3 C-1 6 -1 6 -3 9 C-4.32 9 -5.64 9 -7 9 C-7 7 -7 7 -4.5 4.375 C-3.675 3.59125 -2.85 2.8075 -2 2 Z " fill="#BDDAF4" transform="translate(86,207)"/>
<path d="M0 0 C0.5625 1.9375 0.5625 1.9375 1 4 C0.67 4.33 0.34 4.66 0 5 C2.97 5.33 5.94 5.66 9 6 C9 6.33 9 6.66 9 7 C5.37 7 1.74 7 -2 7 C-1.125 1.125 -1.125 1.125 0 0 Z " fill="#E0F3FA" transform="translate(120,105)"/>
<path d="M0 0 C0.99 0 1.98 0 3 0 C3.33 1.65 3.66 3.3 4 5 C4.99 5.33 5.98 5.66 7 6 C6.67 6.99 6.34 7.98 6 9 C4.99406757 7.8803014 3.9954151 6.7540588 3 5.625 C2.443125 4.99851563 1.88625 4.37203125 1.3125 3.7265625 C0 2 0 2 0 0 Z " fill="#2566A3" transform="translate(52,229)"/>
<path d="M0 0 C0.33 0.66 0.66 1.32 1 2 C0.22265625 4.1640625 0.22265625 4.1640625 -0.9375 6.625 C-1.31777344 7.44226563 -1.69804687 8.25953125 -2.08984375 9.1015625 C-2.39019531 9.72804687 -2.69054687 10.35453125 -3 11 C-3.33 11 -3.66 11 -4 11 C-4.36630156 7.06225823 -4.30233203 5.43460229 -2 2.125 C-1.34 1.42375 -0.68 0.7225 0 0 Z " fill="#2273BD" transform="translate(261,173)"/>
<path d="M0 0 C0.598125 0.78375 1.19625 1.5675 1.8125 2.375 C3.91085249 5.14574323 3.91085249 5.14574323 7 7 C6.01 7.66 5.02 8.32 4 9 C2.02 6.36 0.04 3.72 -2 1 C-1.34 0.67 -0.68 0.34 0 0 Z " fill="#A3D3F8" transform="translate(174,160)"/>
<path d="M0 0 C0.99 0.33 1.98 0.66 3 1 C1.02 3.31 -0.96 5.62 -3 8 C-3.33 7.01 -3.66 6.02 -4 5 C-2.0625 2.3125 -2.0625 2.3125 0 0 Z " fill="#A4CFF7" transform="translate(188,155)"/>
<path d="M0 0 C0.33 0 0.66 0 1 0 C1 2.31 1 4.62 1 7 C-0.32 7.33 -1.64 7.66 -3 8 C-1.125 1.125 -1.125 1.125 0 0 Z " fill="#79ABDC" transform="translate(71,109)"/>
<path d="M0 0 C0.33 0.99 0.66 1.98 1 3 C-0.65 4.65 -2.3 6.3 -4 8 C-4.99 7.67 -5.98 7.34 -7 7 C-4.69 4.69 -2.38 2.38 0 0 Z " fill="#D4ECF7" transform="translate(105,85)"/>
<path d="M0 0 C0.66 0.33 1.32 0.66 2 1 C0.02 3.97 -1.96 6.94 -4 10 C-4.33 9.01 -4.66 8.02 -5 7 C-2 2 -2 2 0 0 Z " fill="#2472BB" transform="translate(68,77)"/>
<path d="M0 0 C1.093125 0.185625 2.18625 0.37125 3.3125 0.5625 C6.93624133 1.2578068 6.93624133 1.2578068 10 0 C10.33 0.99 10.66 1.98 11 3 C8.47946405 4.26026798 7.1457902 3.91874445 4.375 3.5625 C3.14910156 3.40974609 3.14910156 3.40974609 1.8984375 3.25390625 C1.27195312 3.17011719 0.64546875 3.08632812 0 3 C0 2.01 0 1.02 0 0 Z " fill="#3983C3" transform="translate(77,218)"/>
<path d="M0 0 C0.33 0.99 0.66 1.98 1 3 C-0.4375 5.6875 -0.4375 5.6875 -2 8 C-3.32 7.67 -4.64 7.34 -6 7 C-4.02 4.69 -2.04 2.38 0 0 Z " fill="#357EB8" transform="translate(222,189)"/>
<path d="M0 0 C0.33 0.66 0.66 1.32 1 2 C-0.4375 4.625 -0.4375 4.625 -2 7 C-3.32 6.67 -4.64 6.34 -6 6 C-4.02 4.02 -2.04 2.04 0 0 Z " fill="#2D78BA" transform="translate(123,178)"/>
<path d="M0 0 C1.12377697 3.30435084 0.89554742 5.0506862 -0.4375 8.25 C-0.72496094 8.95640625 -1.01242188 9.6628125 -1.30859375 10.390625 C-1.53675781 10.92171875 -1.76492187 11.4528125 -2 12 C-2.66 12 -3.32 12 -4 12 C-3.52309796 10.37433394 -3.04340334 8.74948689 -2.5625 7.125 C-2.29566406 6.22007812 -2.02882812 5.31515625 -1.75390625 4.3828125 C-1 2 -1 2 0 0 Z " fill="#ABD4EA" transform="translate(225,164)"/>
<path d="M0 0 C4.92307692 4.30769231 4.92307692 4.30769231 5.3125 7.8125 C5.209375 8.534375 5.10625 9.25625 5 10 C4.01 9.67 3.02 9.34 2 9 C2 7.68 2 6.36 2 5 C0.58022091 2.77256213 0.58022091 2.77256213 -1 1 C-0.67 0.67 -0.34 0.34 0 0 Z " fill="#2B79BD" transform="translate(122,168)"/>
<path d="M0 0 C1.98 0.495 1.98 0.495 4 1 C3.1875 2.9375 3.1875 2.9375 2 5 C1.01 5.33 0.02 5.66 -1 6 C-0.67 4.02 -0.34 2.04 0 0 Z " fill="#2676B7" transform="translate(146,135)"/>
<path d="M0 0 C1.32 0.66 2.64 1.32 4 2 C3.16855469 2.30744141 3.16855469 2.30744141 2.3203125 2.62109375 C1.59585938 2.89050781 0.87140625 3.15992188 0.125 3.4375 C-0.95394531 3.83775391 -0.95394531 3.83775391 -2.0546875 4.24609375 C-4.03648845 4.97916854 -4.03648845 4.97916854 -6 6 C-6 4.35 -6 2.7 -6 1 C-4.7934375 1.0309375 -4.7934375 1.0309375 -3.5625 1.0625 C-1.06645115 1.29633621 -1.06645115 1.29633621 0 0 Z " fill="#347FC1" transform="translate(196,126)"/>
<path d="M0 0 C0.66 0.33 1.32 0.66 2 1 C0.68 3.64 -0.64 6.28 -2 9 C-2.66 9 -3.32 9 -4 9 C-4 7.35 -4 5.7 -4 4 C-3.01 4 -2.02 4 -1 4 C-0.67 2.68 -0.34 1.36 0 0 Z " fill="#2671B4" transform="translate(118,105)"/>
<path d="M0 0 C0.66 0.33 1.32 0.66 2 1 C-4.28571429 6.57142857 -4.28571429 6.57142857 -8 7 C-5.42215154 4.35247996 -3.08351902 2.05567935 0 0 Z " fill="#2070BA" transform="translate(222,233)"/>
<path d="M0 0 C1.65 0 3.3 0 5 0 C5.33 0.66 5.66 1.32 6 2 C5.01 2.33 4.02 2.66 3 3 C2.67 3.99 2.34 4.98 2 6 C1.34 5.34 0.68 4.68 0 4 C0 2.68 0 1.36 0 0 Z " fill="#58A0E1" transform="translate(100,216)"/>
<path d="M0 0 C0.66 1.32 1.32 2.64 2 4 C2.66 4 3.32 4 4 4 C4 5.65 4 7.3 4 9 C3.67 8.34 3.34 7.68 3 7 C2.01 6.67 1.02 6.34 0 6 C0 4.02 0 2.04 0 0 Z " fill="#225F9B" transform="translate(46,218)"/>
<path d="M0 0 C0 4.38968456 -2.12805101 5.76905739 -5 9 C-5.33 8.01 -5.66 7.02 -6 6 C-5.34 6 -4.68 6 -4 6 C-3.896875 5.38125 -3.79375 4.7625 -3.6875 4.125 C-3 2 -3 2 0 0 Z " fill="#216FB9" transform="translate(226,201)"/>
<path d="M0 0 C1.65 0 3.3 0 5 0 C3.35 1.98 1.7 3.96 0 6 C-1.125 2.25 -1.125 2.25 0 0 Z " fill="#A9D2F5" transform="translate(106,191)"/>
<path d="M0 0 C0.33 0 0.66 0 1 0 C1.25 3.25 1.25 3.25 1 7 C-0.32 8.32 -1.64 9.64 -3 11 C-2.01 7.37 -1.02 3.74 0 0 Z " fill="#1C3955" transform="translate(289,183)"/>
<path d="M0 0 C3.34998521 1.11666174 3.79340222 1.74694925 5.6875 4.5625 C6.12449219 5.20316406 6.56148437 5.84382812 7.01171875 6.50390625 C7.33785156 6.99761719 7.66398438 7.49132812 8 8 C4.79837298 7.40137646 4.08063485 7.08735442 1.75 4.5625 C0 2 0 2 0 0 Z " fill="#3577B0" transform="translate(133,173)"/>
<path d="M0 0 C0.33 0 0.66 0 1 0 C0.88541307 1.43836751 0.75790884 2.87570966 0.625 4.3125 C0.55539063 5.11300781 0.48578125 5.91351563 0.4140625 6.73828125 C0 9 0 9 -2 12 C-2.28571429 3.42857143 -2.28571429 3.42857143 0 0 Z " fill="#CCE8F8" transform="translate(235,155)"/>
<path d="M0 0 C0.66 0.66 1.32 1.32 2 2 C0.68 4.97 -0.64 7.94 -2 11 C-3.53445094 7.93109813 -2.54984289 5.29905734 -2 2 C-1.34 2 -0.68 2 0 2 C0 1.34 0 0.68 0 0 Z " fill="#2374BC" transform="translate(72,96)"/>
<path d="M0 0 C-0.33 0.66 -0.66 1.32 -1 2 C-0.01 2.66 0.98 3.32 2 4 C0.35 4.33 -1.3 4.66 -3 5 C-3.33 4.01 -3.66 3.02 -4 2 C-4.66 1.34 -5.32 0.68 -6 0 C-3.50907189 -1.24546405 -2.58919267 -0.7767578 0 0 Z " fill="#61A1DE" transform="translate(125,55)"/>
<path d="M0 0 C3.37462715 0.54723683 5.08235 1.0549 8 3 C8 3.66 8 4.32 8 5 C4.62496331 3.8141763 2.35277269 2.72426311 0 0 Z " fill="#23619A" transform="translate(89,264)"/>
<path d="M0 0 C2.5 2.3125 2.5 2.3125 5 5 C5 5.99 5 6.98 5 8 C4.01 7.34 3.02 6.68 2 6 C2 5.34 2 4.68 2 4 C1.01 3.67 0.02 3.34 -1 3 C-0.67 2.01 -0.34 1.02 0 0 Z " fill="#1E3851" transform="translate(49,227)"/>
<path d="M0 0 C0.99 0.33 1.98 0.66 3 1 C1.47058649 4.05882701 -0.94219546 4.68951234 -4 6 C-4.66 5.67 -5.32 5.34 -6 5 C-5.01 4.67 -4.02 4.34 -3 4 C-3 3.34 -3 2.68 -3 2 C-2.01 1.34 -1.02 0.68 0 0 Z " fill="#2475C0" transform="translate(231,226)"/>
<path d="M0 0 C0.66 1.32 1.32 2.64 2 4 C0.1875 5.0625 0.1875 5.0625 -2 6 C-2.99 5.67 -3.98 5.34 -5 5 C-4.01 4.67 -3.02 4.34 -2 4 C-0.79117904 1.99983534 -0.79117904 1.99983534 0 0 Z " fill="#3B81BE" transform="translate(215,197)"/>
<path d="M0 0 C4.875 4.625 4.875 4.625 6 8 C3.5625 7.375 3.5625 7.375 1 6 C0.1875 2.875 0.1875 2.875 0 0 Z " fill="#3077B3" transform="translate(123,160)"/>
<path d="M0 0 C0.33 0 0.66 0 1 0 C1.04898438 0.68707031 1.09796875 1.37414062 1.1484375 2.08203125 C1.22320312 2.98308594 1.29796875 3.88414062 1.375 4.8125 C1.44460937 5.70582031 1.51421875 6.59914062 1.5859375 7.51953125 C1.86645036 10.24398499 1.86645036 10.24398499 4 13 C3.01 13 2.02 13 1 13 C-0.32229189 10.35541621 -0.09677194 8.32238699 -0.0625 5.375 C-0.05347656 4.37210938 -0.04445313 3.36921875 -0.03515625 2.3359375 C-0.02355469 1.56507813 -0.01195313 0.79421875 0 0 Z " fill="#3984BD" transform="translate(119,147)"/>
<path d="M0 0 C3.16115776 1.36983503 3.9927092 1.9890638 6 5 C3 5 3 5 0 3 C-0.66 2.67 -1.32 2.34 -2 2 C-1.34 1.34 -0.68 0.68 0 0 Z " fill="#2A72B2" transform="translate(203,143)"/>
<path d="M0 0 C2.475 0.495 2.475 0.495 5 1 C4.67 2.65 4.34 4.3 4 6 C2 4.6875 2 4.6875 0 3 C0 2.01 0 1.02 0 0 Z " fill="#9CD1F5" transform="translate(207,143)"/>
<path d="M0 0 C0 3 0 3 -1 6 C-3.5625 7.1875 -3.5625 7.1875 -6 8 C-4.26440562 4.942048 -2.61527381 2.36620011 0 0 Z " fill="#3474AB" transform="translate(107,95)"/>
<path d="M0 0 C2.125 0.9375 2.125 0.9375 4 2 C-0.75 4.875 -0.75 4.875 -3 6 C-2.625 3.5625 -2.625 3.5625 -2 1 C-1.34 0.67 -0.68 0.34 0 0 Z " fill="#D4EFFA" transform="translate(224,50)"/>
<path d="M0 0 C1.32 0.33 2.64 0.66 4 1 C1.69 2.65 -0.62 4.3 -3 6 C-3 3 -3 3 -1.75 1.25 C-1.1725 0.8375 -0.595 0.425 0 0 Z " fill="#27669F" transform="translate(232,259)"/>
<path d="M0 0 C0.66 0.33 1.32 0.66 2 1 C0.02 3.31 -1.96 5.62 -4 8 C-4.33 7.01 -4.66 6.02 -5 5 C-3.35 3.35 -1.7 1.7 0 0 Z " fill="#ADDAFC" transform="translate(85,206)"/>
<path d="M0 0 C0 3 0 3 -1 6 C-2.65 6.33 -4.3 6.66 -6 7 C-4.02 4.69 -2.04 2.38 0 0 Z " fill="#3682C2" transform="translate(102,200)"/>
<path d="M0 0 C2.4375 0.6875 2.4375 0.6875 5 2 C5.8125 4.625 5.8125 4.625 6 7 C1.125 3.375 1.125 3.375 0 0 Z " fill="#3074AE" transform="translate(147,166)"/>
<path d="M0 0 C0.33 1.32 0.66 2.64 1 4 C-0.65 4.33 -2.3 4.66 -4 5 C-4 4.01 -4 3.02 -4 2 C-2.68 1.34 -1.36 0.68 0 0 Z " fill="#ACD1F3" transform="translate(181,154)"/>
<path d="M0 0 C4.95 1.98 4.95 1.98 10 4 C5.7406111 5.06484722 4.71804639 5.0097548 1 3 C0.67 2.01 0.34 1.02 0 0 Z " fill="#226BAA" transform="translate(184,78)"/>
<path d="M0 0 C1 2 1 2 0.25 4.5625 C-1 7 -1 7 -4 8 C-2.87548273 5.0280615 -1.77706209 2.66559313 0 0 Z " fill="#23619B" transform="translate(48,61)"/>
<path d="M0 0 C-3.96 1.98 -3.96 1.98 -8 4 C-8.33 3.34 -8.66 2.68 -9 2 C-3.375 -1.125 -3.375 -1.125 0 0 Z " fill="#1D354D" transform="translate(110,11)"/>
</svg>
